<svg xmlns="http://www.w3.org/2000/svg" xmlns:xlink="http://www.w3.org/1999/xlink" width="227" height="66" viewBox="0 0 227 66">
  <defs>
    <polygon id="ehi̇m-1-a" points=".55 .282 65.2 .282 65.2 64.944 .55 64.944"/>
    <polygon id="ehi̇m-1-c" points="0 65.454 226.74 65.454 226.74 .792 0 .792"/>
  </defs>
  <g fill="none" fill-rule="evenodd">
    <path fill="#224087" d="M192.865384,36.1102118 C193.091064,36.0809078 193.313577,36.1743638 193.450569,36.3565238 L194.113356,37.2332679 C194.192542,37.3378119 194.312905,37.3972119 194.443562,37.3972119 C194.574219,37.3964199 194.694582,37.3346439 194.771392,37.2293079 L195.422302,36.3422678 C195.560085,36.1553558 195.788141,36.0587318 196.018573,36.0912038 L197.107381,36.2424758 C197.237246,36.2606918 197.364736,36.2179238 197.456591,36.1244678 C197.548447,36.0310118 197.590416,35.9034998 197.569827,35.7744038 L197.402745,34.6869878 C197.368695,34.4573078 197.462134,34.2276278 197.64743,34.0874438 L198.524019,33.4245397 C198.629337,33.3453397 198.688726,33.2249557 198.687942,33.0942757 C198.687143,32.9628037 198.625377,32.8432117 198.520852,32.7655957 L197.633176,32.1153637 C197.446297,31.9775557 197.34969,31.7494597 197.382156,31.5189877 L197.534194,30.4299876 C197.552406,30.3000996 197.508854,30.1725876 197.415415,30.0807156 C197.322767,29.9888436 197.187359,29.9484516 197.065412,29.9674596 L195.97898,30.1337796 C195.974228,30.1345716 195.968685,30.1353636 195.963934,30.1361556 C195.739046,30.1654596 195.516533,30.0712116 195.378749,29.8898436 L194.715962,29.0123076 C194.636776,28.9077635 194.517205,28.8483635 194.385756,28.8491477 C194.255891,28.8499475 194.135528,28.9117235 194.057926,29.0170596 L193.407809,29.9033076 C193.270025,30.0910116 193.041969,30.1876356 192.810746,30.1551636 L191.721938,30.0030996 C191.592072,29.9856756 191.464583,30.0284436 191.372727,30.1211076 C191.280871,30.2145636 191.239695,30.3428676 191.259491,30.4719636 L191.426574,31.5593797 C191.462207,31.7890597 191.367976,32.0187397 191.182681,32.1589237 L190.305299,32.8218277 C190.200774,32.9002357 190.141384,33.0214117 190.142168,33.1520917 C190.142968,33.2827717 190.203941,33.4031557 190.309258,33.4799797 L191.196142,34.1310038 C191.383021,34.2680198 191.479628,34.4969078 191.447954,34.7273798 L191.295917,35.8163798 C191.277704,35.9462678 191.320464,36.0737798 191.413904,36.1656518 C191.506552,36.2575238 191.642752,36.2979158 191.763906,36.2789078 L192.850339,36.1117958 C192.855882,36.1110038 192.860633,36.1102118 192.865384,36.1102118 M194.524332,37.6126359 C194.498992,37.6158039 194.472069,37.618185 194.445146,37.618185 C194.243221,37.6189719 194.058718,37.5278919 193.937563,37.3671159 L193.274776,36.4895798 C193.18292,36.3684038 193.03405,36.3082118 192.884389,36.3311798 L191.797956,36.4974999 C191.602367,36.5275959 191.402026,36.4650278 191.258699,36.3232598 C191.114581,36.1814918 191.048856,35.9858678 191.076571,35.7854918 L191.228609,34.6964918 C191.249197,34.5468038 191.18664,34.3986998 191.065485,34.3092038 L190.17781,33.6581797 C190.015478,33.5393797 189.922039,33.3548437 189.920435,33.1536757 C189.918871,32.9517157 190.011519,32.7663877 190.172267,32.6452117 L191.048856,31.9823077 C191.169219,31.8912277 191.230984,31.7415397 191.207228,31.5926437 L191.040146,30.5052276 C191.010055,30.3064356 191.073404,30.1092276 191.215147,29.9658756 C191.357682,29.8225236 191.553271,29.7567876 191.75282,29.7845076 L192.841628,29.9365716 C192.99129,29.9571636 193.14016,29.8945956 193.228848,29.7726276 L193.878966,28.8855875 C193.999328,28.7232275 194.18304,28.6297715 194.384173,28.6281674 C194.586097,28.6266035 194.770601,28.7184755 194.893339,28.8792515 L195.555334,29.7567876 C195.646398,29.8771716 195.79606,29.9381556 195.94493,29.9151876 L197.032154,29.7480756 C197.230119,29.7187716 197.428084,29.7813396 197.570619,29.9231076 C197.714738,30.0648756 197.781254,30.2604996 197.753539,30.4600836 L197.60071,31.5490837 C197.580122,31.6987717 197.642679,31.8476677 197.764625,31.9363717 L198.651509,32.5873957 C198.81384,32.7069877 198.908072,32.8915237 198.908884,33.0926917 C198.910447,33.2946517 198.819383,33.4799797 198.657844,33.6011557 L197.780462,34.2632678 C197.660099,34.3551398 197.599918,34.5040358 197.62209,34.6537238 L197.789173,35.7403478 C197.819263,35.9399318 197.755915,36.1363478 197.614172,36.2796998 C197.472429,36.4238438 197.276839,36.4895798 197.07729,36.4618598 L195.98769,36.3097958 C195.839612,36.2892038 195.689951,36.3517718 195.60047,36.4737398 L194.950353,37.3599879 C194.846619,37.5009639 194.694582,37.5904599 194.524332,37.6126359"/>
    <path fill="#224087" d="M191.405352,29.53875 C191.308745,29.551422 191.218473,29.59419 191.14483,29.663094 C191.036345,29.766054 190.984082,29.910198 191.001503,30.058302 L191.14483,31.271646 C191.174129,31.5242941 191.063268,31.7713981 190.855801,31.9171261 L189.855681,32.6188381 C189.733734,32.7051661 189.660883,32.8398061 189.656132,32.9887021 C189.652173,33.1383901 189.717105,33.2777821 189.835092,33.3696541 L190.794035,34.1268062 C190.992792,34.2844142 191.090191,34.5378542 191.045847,34.7873342 L190.83442,35.9911742 C190.809081,36.1384862 190.852633,36.2850062 190.955575,36.3935102 C191.058517,36.5020143 191.201844,36.5542863 191.350713,36.5368623 L192.563844,36.3943022 C192.815655,36.3642062 193.063508,36.4750862 193.208418,36.6825903 L193.910798,37.6828863 C193.996319,37.8056463 194.130936,37.8777183 194.281389,37.8824703 C194.430259,37.8864303 194.568834,37.8214863 194.661482,37.7042703 L195.418501,36.7451583 C195.576081,36.5455743 195.828685,36.4489502 196.078912,36.4925103 L197.28254,36.7039743 C197.429035,36.7301103 197.576321,36.6857583 197.684806,36.5835903 C197.792499,36.4806302 197.845553,36.3364862 197.82734,36.1883822 L197.685597,34.9742462 C197.655507,34.7215982 197.765575,34.4744942 197.973835,34.3287662 L198.973954,33.6270541 C199.096693,33.5415181 199.168752,33.4060861 199.173503,33.2571901 C199.176671,33.1075021 199.111738,32.9689021 198.995335,32.8762381 L198.0356,32.1190861 C197.836843,31.9622701 197.740236,31.7088301 197.78458,31.4585581 L197.994423,30.25551 C198.020554,30.108198 197.977002,29.961678 197.87406,29.852382 C197.771118,29.743878 197.627,29.691606 197.478922,29.70903 L196.265792,29.852382 C196.013188,29.881686 195.766128,29.770806 195.620425,29.563302 L194.918837,28.5630059 C194.832524,28.4410379 194.697908,28.3681739 194.549038,28.3642139 C194.398584,28.3602539 194.260801,28.4244059 194.167361,28.5424139 L193.411134,29.501526 C193.253554,29.700318 193.000951,29.796942 192.750723,29.753382 L191.547887,29.541918 C191.499583,29.533998 191.452072,29.533206 191.405352,29.53875 M194.385123,38.0978943 C194.348697,38.1026463 194.312272,38.1042303 194.275054,38.1034383 C194.054917,38.0971023 193.85616,37.9901823 193.730254,37.8103983 L193.027874,36.8101023 C192.928891,36.6683343 192.761017,36.5938863 192.589975,36.6136863 L191.376845,36.7570383 C191.158291,36.7823823 190.946073,36.7055583 190.794827,36.5455743 C190.643582,36.3855902 190.578649,36.1693742 190.616659,35.9531582 L190.828085,34.7493182 C190.858176,34.5798302 190.792452,34.4071742 190.656252,34.3010462 L189.697309,33.5438941 C189.524683,33.4076701 189.42966,33.2025421 189.435995,32.9831581 C189.44233,32.7629821 189.548439,32.5641901 189.728983,32.4382621 L190.729103,31.7357581 C190.869262,31.6367581 190.944489,31.4688541 190.924692,31.297782 L190.782158,30.084438 C190.756026,29.865846 190.832837,29.65359 190.992792,29.502318 C191.15354,29.351046 191.368926,29.286102 191.585896,29.324118 L192.788732,29.535582 C192.95819,29.564886 193.130816,29.499942 193.236925,29.36451 L193.994736,28.4046059 C194.130144,28.2319499 194.335236,28.1361179 194.554581,28.1424539 C194.774718,28.1487899 194.973475,28.2557099 195.100173,28.4354939 L195.801761,29.436582 C195.900744,29.577558 196.068618,29.652798 196.23966,29.632998 L197.453582,29.489646 C197.671344,29.46351 197.884354,29.540334 198.034808,29.700318 C198.186053,29.861094 198.250986,30.076518 198.212976,30.293526 L198.00155,31.4973661 C197.972251,31.6668541 198.037975,31.8387181 198.173383,31.9456381 L199.132327,32.7027901 C199.304952,32.8390141 199.400767,33.0433501 199.394432,33.2635261 C199.388097,33.4829101 199.281196,33.6817021 199.101444,33.8084221 L198.100532,34.5101342 C197.959581,34.6091342 197.885146,34.7770382 197.904943,34.9489022 L198.048269,36.1622462 C198.073609,36.3808382 197.996007,36.5923023 197.836843,36.7435743 C197.676887,36.8948463 197.460709,36.9597903 197.243739,36.9217743 L196.040903,36.7111023 C195.872237,36.6810063 195.699611,36.7467423 195.591918,36.8821743 L194.835691,37.8412863 C194.721664,37.9846383 194.561708,38.0749263 194.385123,38.0978943"/>
    <path fill="#224087" d="M191.191945,29.0162676 C191.089004,29.0297316 190.990813,29.0732916 190.910043,29.1453636 C190.781762,29.2578276 190.716829,29.4193956 190.731083,29.5888836 L190.842735,30.9416196 C190.865699,31.2180276 190.735834,31.4841397 190.503027,31.6354117 L189.365123,32.3759317 C189.222588,32.4685957 189.134692,32.6190757 189.124398,32.7893557 C189.113312,32.9588437 189.181412,33.1188277 189.311277,33.2289157 L190.34703,34.1064518 C190.558457,34.2862358 190.654272,34.5666038 190.596466,34.8382598 L190.316148,36.1664438 C190.281306,36.3327638 190.324858,36.5014599 190.437302,36.6289719 C190.549747,36.7556919 190.712078,36.8214279 190.880744,36.8071719 L192.233242,36.6954999 C192.510393,36.6725319 192.776458,36.8032119 192.927704,37.0352679 L193.668093,38.1741639 C193.760741,38.3159319 193.911194,38.4046359 194.080652,38.4149319 C194.250111,38.4252279 194.410066,38.3571159 194.520135,38.2272279 L195.398308,37.1920839 C195.577269,36.9806199 195.857587,36.8839959 196.129196,36.9418119 L197.457146,37.2221799 C197.624228,37.2578199 197.792894,37.2134679 197.919592,37.1010039 C198.047082,36.9885399 198.112014,36.8269719 198.098553,36.6574839 L197.9869,35.3047478 C197.963936,35.0275478 198.094593,34.7622278 198.3274,34.6101638 L199.464512,33.8696437 C199.607047,33.7769797 199.694943,33.6264997 199.705238,33.4570117 C199.716324,33.2875237 199.648224,33.1267477 199.518359,33.0174517 L198.482605,32.1391237 C198.271178,31.9601317 198.174571,31.6797637 198.233169,31.4081076 L198.513488,30.0799236 C198.549121,29.9136036 198.503985,29.7449076 198.392333,29.6173956 C198.279889,29.4898836 198.117557,29.4249396 197.948891,29.4391956 L196.595601,29.5508676 C196.319242,29.5738356 196.053969,29.4431556 195.901932,29.2103076 L195.161542,28.0722035 C195.068894,27.9296435 194.918441,27.8425235 194.748983,27.8314355 C194.580316,27.8203475 194.418777,27.8884595 194.3095,28.0183475 L193.431327,29.0542836 C193.251575,29.2665396 192.971256,29.3623716 192.70044,29.3045556 L191.37249,29.0233956 C191.311516,29.0107236 191.250543,29.0083476 191.191945,29.0162676 M194.213685,38.6311479 C194.166173,38.6366919 194.116286,38.6390679 194.067191,38.6358999 C193.826465,38.6200599 193.614247,38.4957159 193.482798,38.2945479 L192.742408,37.1564439 C192.634715,36.9917079 192.447044,36.8998359 192.252247,36.9164679 L190.898957,37.0281399 C190.659023,37.0479399 190.430176,36.9552759 190.271803,36.7746999 C190.11264,36.5941239 190.050083,36.3557318 190.09997,36.1205078 L190.38108,34.7923238 C190.420673,34.6006598 190.353365,34.4018678 190.203703,34.2759398 L189.16795,33.3976117 C188.98503,33.2423797 188.888423,33.0150757 188.902677,32.7750997 C188.918514,32.5351237 189.042836,32.3220757 189.243969,32.1906037 L190.382664,31.4500836 C190.546579,31.3431636 190.638435,31.1554596 190.621806,30.9598356 L190.510945,29.6070996 C190.490357,29.3671236 190.582213,29.1382356 190.763549,28.9790436 C190.944093,28.8198515 191.182443,28.7572835 191.417626,28.8071795 L192.746368,29.0883396 C192.937998,29.1287316 193.135963,29.0614116 193.262661,28.9109315 L194.140834,27.8757875 C194.296039,27.6920435 194.522511,27.5954195 194.763236,27.6104675 C195.002378,27.6255155 195.215389,27.7498595 195.346837,27.9518195 L196.088019,29.0899236 C196.194128,29.2538676 196.382591,29.3465316 196.577389,29.3298996 L197.930678,29.2182276 C198.170612,29.1984276 198.39946,29.2902996 198.558624,29.4708756 C198.716996,29.6514516 198.779553,29.8906356 198.730457,30.1258596 L198.449347,31.4540436 C198.40817,31.6457077 198.47627,31.8437077 198.625932,31.9704277 L199.660893,32.8479637 C199.845397,33.0039877 199.942004,33.2312917 199.926167,33.4712677 C199.911121,33.7112437 199.786799,33.9242917 199.585667,34.0557638 L198.447763,34.7962838 C198.283056,34.9032038 198.1912,35.0909078 198.207038,35.2865318 L198.31869,36.6392679 C198.338486,36.8792439 198.246631,37.1081319 198.066086,37.2673239 C197.885542,37.4265159 197.6464,37.4890839 197.411218,37.4391879 L196.08406,37.1580279 C195.892429,37.1176359 195.694464,37.1849559 195.566975,37.3346439 L194.689593,38.3705799 C194.566063,38.5163079 194.398189,38.6073879 194.213685,38.6311479"/>
    <path fill="#224087" d="M190.973867,28.4276531 C190.863007,28.4419091 190.758481,28.4870531 190.669001,28.5599171 C190.520131,28.6826771 190.440153,28.8632531 190.448863,29.0557092 L190.520923,30.5628852 C190.535176,30.8662212 190.382347,31.1521332 190.122617,31.3089492 L188.830301,32.0874853 C188.664802,32.1872773 188.559484,32.3543893 188.54048,32.5460533 C188.521475,32.7377173 188.591951,32.9222533 188.735277,33.0521413 L189.851009,34.0666934 C190.075897,34.2710294 190.170129,34.5814934 190.097277,34.8761174 L189.733813,36.3405254 C189.687094,36.5274375 189.730646,36.7206855 189.852593,36.8695815 C189.975331,37.0184775 190.155875,37.0984695 190.348297,37.0897575 L191.854416,37.0176855 C192.15849,37.0034295 192.444352,37.1562855 192.60114,37.4168535 L193.379539,38.7086055 C193.478522,38.8741335 193.645604,38.9794695 193.837235,38.9984775 C194.028865,39.0174856 194.21416,38.9462055 194.344025,38.8036455 L195.358399,37.6877175 C195.562699,37.4627895 195.873108,37.3685415 196.168472,37.4414055 L197.63183,37.8049335 C197.819501,37.8516615 198.011923,37.8081015 198.160001,37.6853415 C198.309663,37.5633735 198.389641,37.3827975 198.38093,37.1903415 L198.309663,35.6831654 C198.293825,35.3798294 198.447446,35.0939174 198.707968,34.9371014 L199.999493,34.1585654 C200.1642,34.0595654 200.270309,33.8924533 200.289314,33.7007893 C200.308319,33.5083333 200.237051,33.3237973 200.094516,33.1947013 L198.977993,32.1793573 C198.753105,31.9750213 198.659665,31.6645573 198.732516,31.3699332 L199.09598,29.9055252 C199.141908,29.7186132 199.099148,29.5261572 198.976409,29.3764692 C198.854463,29.2275732 198.673918,29.1475812 198.480705,29.1562932 L196.974586,29.2283652 C196.671303,29.2426212 196.385442,29.0897652 196.228653,28.8291971 L195.450254,27.5374451 C195.35048,27.3719171 195.183397,27.2665811 194.991767,27.2475731 C194.800137,27.2285651 194.615633,27.2998451 194.48656,27.4424051 L193.471395,28.5591251 C193.267095,28.7832611 192.956686,28.8775091 192.662114,28.8046451 L191.197964,28.4411171 C191.122737,28.4221091 191.04751,28.4181491 190.973867,28.4276531 M194.005901,39.2162776 C193.943344,39.2241976 193.879995,39.2249896 193.815854,39.2186536 C193.553749,39.1925176 193.325693,39.0483736 193.189493,38.8226535 L192.411094,37.5309015 C192.297066,37.3400295 192.087223,37.2283575 191.865502,37.2386535 L190.359383,37.3107255 C190.096486,37.3226055 189.848633,37.2133095 189.681551,37.0097655 C189.514468,36.8062215 189.455079,36.5432775 189.518427,36.2866694 L189.881891,34.8230534 C189.934946,34.6068374 189.866846,34.3803254 189.702931,34.2306374 L188.586408,33.2152933 C188.39161,33.0378853 188.294211,32.7860293 188.319551,32.5238773 C188.346474,32.2617253 188.489801,32.0336293 188.715481,31.8974053 L190.007797,31.1196612 C190.198636,31.0048212 190.310288,30.7957332 190.299202,30.5731812 L190.228726,29.0667972 C190.216057,28.8030611 190.325333,28.5567491 190.528841,28.3888451 C190.73235,28.2217331 190.995247,28.1631251 191.25181,28.2264851 L192.715168,28.5900131 C192.930554,28.6430771 193.157818,28.5749651 193.30748,28.4102291 L194.322645,27.2935091 C194.49923,27.0986771 194.751833,27.0012611 195.013939,27.0273971 C195.276045,27.0535331 195.504101,27.1976771 195.640301,27.4226051 L196.417908,28.7151491 C196.532728,28.9060211 196.741779,29.0176932 196.9635,29.0073972 L198.471202,28.9361171 C198.7341,28.9226531 198.980368,29.0327412 199.147451,29.2362852 C199.314534,29.4398292 199.373923,29.7035652 199.310574,29.9593812 L198.94711,31.4229972 C198.894056,31.6392133 198.962948,31.8657253 199.127655,32.0154133 L200.243386,33.0307573 C200.438184,33.2081653 200.534791,33.4600213 200.509451,33.7221733 C200.484112,33.9843254 200.339201,34.2124214 200.113521,34.3486454 L198.821205,35.1263894 C198.631158,35.2420214 198.518714,35.4511094 198.5298,35.6728694 L198.601859,37.1792535 C198.613737,37.4429895 198.50446,37.6893015 198.300952,37.8572055 C198.097444,38.0243175 197.833754,38.0837175 197.577984,38.0195655 L196.114625,37.6560375 C195.899239,37.6029735 195.671975,37.6718775 195.521522,37.8366135 L194.507149,38.9525415 C194.373324,39.0998536 194.196739,39.1909336 194.005901,39.2162776"/>
    <path fill="#224087" d="M190.751196,27.7660163 C190.634792,27.7810643 190.522348,27.8270003 190.424949,27.9014483 C190.251532,28.0337123 190.154133,28.2348803 190.156509,28.4534723 L190.177097,30.1293444 C190.181848,30.4619844 190.00368,30.7692804 189.712275,30.9316404 L188.247333,31.7458165 C188.057286,31.8519445 187.930589,32.0364805 187.90129,32.2526965 C187.872783,32.4681205 187.945634,32.6803765 188.101631,32.8324405 L189.302091,34.0030166 C189.541233,34.2350726 189.632297,34.5788006 189.540441,34.8987686 L189.08037,36.5112807 C189.019397,36.7203687 189.061366,36.9397527 189.193606,37.1139927 C189.326639,37.2866487 189.527771,37.3848567 189.745533,37.3824807 L191.421902,37.3610967 C191.754483,37.3563447 192.061725,37.5353367 192.223264,37.8267927 L193.038089,39.2912008 C193.143406,39.4820728 193.32791,39.6080008 193.544088,39.6373048 C193.760266,39.6658168 193.971692,39.5929528 194.124522,39.4369288 L195.2941,38.2370487 C195.526906,37.9978647 195.870574,37.9067847 196.190486,37.9986567 L197.801922,38.4588087 C198.011765,38.5190007 198.23111,38.4770247 198.404528,38.3447607 C198.577945,38.2117047 198.676136,38.0113287 198.672968,37.7935287 L198.65238,36.1168646 C198.648421,35.7842246 198.825797,35.4761366 199.117202,35.3145686 L200.582144,34.5003926 C200.772982,34.3950566 200.898096,34.2097286 200.928187,33.9935126 C200.956694,33.7772965 200.883843,33.5658325 200.727846,33.4137685 L199.527386,32.2431925 C199.289036,32.0103445 199.197972,31.6674085 199.289036,31.3466484 L199.749107,29.7349284 C199.809288,29.5258404 199.768111,29.3056644 199.635871,29.1330084 C199.50363,28.9595604 199.302497,28.8613523 199.083944,28.8645203 L197.408367,28.8851123 C197.074994,28.8890723 196.767752,28.7108723 196.606212,28.4202083 L195.79218,26.9550083 C195.68607,26.7641363 195.501567,26.6382083 195.285389,26.6089043 C195.069211,26.5796003 194.858576,26.6532563 194.704955,26.8092803 L193.536169,28.0091603 C193.303362,28.2475523 192.959695,28.3394243 192.638991,28.2475523 L191.028347,27.7874003 C190.935699,27.7612643 190.84226,27.7541363 190.751196,27.7660163 M193.753931,39.8574808 C193.675537,39.8669848 193.596351,39.8669848 193.514789,39.8566888 C193.228927,39.8178808 192.984242,39.6515608 192.844083,39.3989128 L192.030051,37.9337127 C191.908104,37.7143287 191.676089,37.5788967 191.424277,37.5820647 L189.7487,37.6034487 C189.459671,37.6066167 189.193606,37.4775207 189.018605,37.2478407 C188.842812,37.0189527 188.788174,36.7274967 188.86736,36.4495046 L189.327431,34.8385766 C189.396323,34.5962246 189.327431,34.3364486 189.147678,34.1614166 L187.94801,32.9908405 C187.740542,32.7888805 187.643935,32.5093045 187.682736,32.2233925 C187.720746,31.9366885 187.887828,31.6927525 188.13964,31.5525685 L189.605374,30.7376004 C189.824719,30.6156324 189.959335,30.3835764 189.956168,30.1317204 L189.93558,28.4558483 C189.93162,28.1667683 190.061485,27.9006563 190.290333,27.7256243 C190.519973,27.5505923 190.810585,27.4951523 191.088528,27.5743523 L192.699965,28.0345043 C192.942274,28.1042003 193.202004,28.0352963 193.377005,27.8547203 L194.546583,26.6548403 C194.748508,26.4481283 195.027243,26.3515042 195.314688,26.3895202 C195.60055,26.4283283 195.845234,26.5946483 195.985394,26.8472963 L196.799426,28.3124963 C196.922165,28.5326723 197.15418,28.6673123 197.4052,28.6641443 L199.081568,28.6427603 C199.369805,28.6395923 199.635871,28.7686883 199.810872,28.9983684 C199.986665,29.2280484 200.041303,29.5187124 199.962909,29.7959124 L199.502046,31.4076324 C199.433154,31.6499845 199.502046,31.9089685 199.681799,32.0847925 L200.882259,33.2553685 C201.088935,33.4573285 201.185542,33.7369045 201.147532,34.0228166 C201.108731,34.3095206 200.941649,34.5534566 200.689837,34.6944326 L199.224895,35.5078166 C199.004758,35.6305766 198.870142,35.8626326 198.873309,36.1144886 L198.894689,37.7903607 C198.897857,38.0786487 198.768783,38.3447607 198.539144,38.5205847 C198.309504,38.6956167 198.018891,38.7510567 197.740948,38.6718567 L196.129512,38.2109127 C195.887995,38.1420087 195.628265,38.2109127 195.452472,38.3914887 L194.282894,39.5913688 C194.137983,39.7394728 193.952688,39.8313448 193.753931,39.8574808"/>
    <path fill="#224087" d="M190.526941,27.0231203 C190.404203,27.0389603 190.284632,27.0848963 190.180106,27.1601363 C189.978973,27.3026963 189.860194,27.5260403 189.854651,27.7715603 L189.814266,29.6335524 C189.805556,29.9994564 189.598089,30.3297204 189.272634,30.4960404 L187.613686,31.3434804 C187.395133,31.4551524 187.244679,31.6586965 187.204294,31.9018405 C187.163118,32.1441925 187.237552,32.3857525 187.407802,32.5639525 L188.694576,33.9103525 C188.947179,34.1740886 189.034284,34.5542486 188.92184,34.9027286 L188.347741,36.6744327 C188.271722,36.9080727 188.309732,37.1583447 188.453058,37.3587207 C188.595593,37.5598887 188.818898,37.6778967 189.064375,37.6834407 L190.926039,37.7254167 C191.291878,37.7333367 191.622084,37.9408407 191.788375,38.2663527 L192.634874,39.9248008 C192.747318,40.1441848 192.951618,40.2938728 193.193927,40.3350568 C193.436236,40.3762408 193.677754,40.3017928 193.855922,40.1315128 L195.201293,38.8445127 C195.465775,38.5918647 195.845868,38.5047447 196.193495,38.6172087 L197.965678,39.1914088 C198.199277,39.2666488 198.449505,39.2286328 198.649846,39.0860728 C198.850978,38.9435127 198.968966,38.7209607 198.974509,38.4738567 L199.016477,36.6118647 C199.023604,36.2467526 199.231072,35.9164886 199.557318,35.7501686 L201.215474,34.9027286 C201.434819,34.7910566 201.584481,34.5875126 201.625658,34.3443686 C201.666043,34.1020166 201.5924,33.8604565 201.42215,33.6822565 L200.135376,32.3358565 C199.881981,32.0721205 199.795668,31.6919605 199.908112,31.3434804 L200.481419,29.5717764 C200.55823,29.3373444 200.519429,29.0878644 200.376894,28.8874883 C200.234359,28.6863203 200.011846,28.5683123 199.764785,28.5627683 L197.903121,28.5207923 C197.538074,28.5128723 197.207868,28.3053683 197.041577,27.9798563 L196.194287,26.3214082 C196.082634,26.1020242 195.879126,25.9523362 195.635233,25.9111522 C195.393716,25.8699682 195.151406,25.9444162 194.974029,26.1146962 L193.627867,27.4016963 C193.364177,27.6543443 192.984084,27.7414643 192.635665,27.6290003 L190.864274,27.0555923 C190.752621,27.0191603 190.638593,27.0080723 190.526941,27.0231203 M193.452865,40.5591928 C193.356258,40.5718648 193.256484,40.5694888 193.15671,40.5528568 C192.844717,40.5005848 192.582611,40.3081288 192.438492,40.0253848 L191.591201,38.3669367 C191.462128,38.1134967 191.204774,37.9527207 190.921287,37.9463847 L189.059623,37.9052007 C188.742879,37.8972807 188.456226,37.7460087 188.271722,37.4870247 C188.088802,37.2288327 188.039707,36.9072807 188.137106,36.6063207 L188.711205,34.8338246 C188.798309,34.5637526 188.731001,34.2683366 188.53462,34.0632086 L187.247847,32.7168085 C187.028501,32.4879205 186.933478,32.1774565 186.985741,31.8646165 C187.039587,31.5525685 187.231218,31.2904164 187.51312,31.1462724 L189.172068,30.2988324 C189.424671,30.1697364 189.586211,29.9131284 189.591754,29.6288004 L189.633722,27.7668083 C189.640849,27.4500083 189.792886,27.1633043 190.051033,26.9795603 C190.310763,26.7958163 190.631467,26.7467123 190.933165,26.8441283 L192.703765,27.4183283 C192.974582,27.5054483 193.269946,27.4381283 193.475038,27.2417123 L194.8212,25.9547122 C195.050048,25.7353282 195.360457,25.6402882 195.67245,25.6933522 C195.985235,25.7464162 196.247341,25.9380802 196.39146,26.2208242 L197.238751,27.8792723 C197.367824,28.1319203 197.624387,28.2934883 197.907873,28.2998243 L199.770329,28.3418003 C200.086281,28.3481363 200.373726,28.5009923 200.557438,28.7591843 C200.740358,29.0173764 200.790245,29.3389284 200.692846,29.6398884 L200.118747,31.4123844 C200.030851,31.6824565 200.098951,31.9778725 200.295332,32.1830005 L201.582105,33.5294005 C201.800659,33.7582885 201.896474,34.0687526 201.843419,34.3815926 C201.791157,34.6936406 201.597943,34.9557926 201.31604,35.0999366 L199.657884,35.9473766 C199.405281,36.0764726 199.243741,36.3330806 199.237406,36.6174087 L199.195438,38.4794007 C199.188311,38.7962007 199.036274,39.0829048 198.778127,39.2666488 C198.519981,39.4503928 198.198485,39.4994968 197.897578,39.4012888 L196.125395,38.8278807 C195.85537,38.7399687 195.559214,38.8080807 195.354914,39.0044967 L194.008752,40.2914968 C193.852755,40.4403928 193.659541,40.5322648 193.452865,40.5591928"/>
    <path fill="#224087" d="M190.303399,26.1896986 C190.174325,26.2063306 190.050003,26.2522666 189.935975,26.3267146 C189.704752,26.4795707 189.562217,26.7266747 189.54638,27.0030827 L189.428393,29.0694108 C189.405429,29.4709548 189.165495,29.8249788 188.801239,29.9952588 L186.926906,30.8720028 C186.675886,30.9892188 186.499301,31.2125628 186.443079,31.4850109 C186.387649,31.7566669 186.461292,32.0314909 186.645795,32.2389949 L188.02284,33.7833949 C188.290489,34.082771 188.371259,34.504115 188.234267,34.881899 L187.52872,36.8270511 C187.433696,37.0876191 187.466954,37.3703631 187.619784,37.6024191 C187.772613,37.8344751 188.018881,37.9762431 188.296032,37.9920831 L190.361996,38.1100911 C190.762678,38.1338511 191.117431,38.3738271 191.287681,38.7373551 L192.164271,40.6120192 C192.281466,40.8638752 192.504771,41.0396992 192.776379,41.0959312 C193.048779,41.1521632 193.322763,41.0777152 193.53023,40.8931792 L195.074358,39.5158912 C195.374473,39.2481952 195.795743,39.1674112 196.172669,39.3044272 L198.117478,40.0108912 C198.378792,40.1051392 198.661486,40.0718752 198.893501,39.9190192 C199.125517,39.7669552 199.266468,39.5198512 199.283097,39.2426512 L199.401084,37.1771151 C199.42484,36.7755711 199.664774,36.420755 200.028237,36.250475 L201.902571,35.374523 C202.154383,35.256515 202.330176,35.033171 202.386398,34.761515 C202.441828,34.489067 202.368185,34.214243 202.183682,34.007531 L200.806636,32.4623389 C200.538988,32.1629629 200.458218,31.7424109 200.59521,31.3646268 L201.301549,29.4194748 C201.395781,29.1581148 201.362522,28.8753707 201.209693,28.6441067 C201.056864,28.4120507 200.810596,28.2694907 200.533444,28.2536507 L198.468272,28.1356427 C198.066799,28.1126747 197.711254,27.8726987 197.542587,27.5083787 L196.665206,25.6337146 C196.548011,25.3818586 196.324706,25.2060346 196.053098,25.1505946 C195.780698,25.0943626 195.505922,25.1680186 195.299247,25.3525546 L193.754327,26.7298427 C193.455004,26.9975387 193.034526,27.0783227 192.656808,26.9413067 L190.711999,26.2356346 C190.578174,26.1873226 190.438807,26.1722746 190.303399,26.1896986 M193.094707,41.3264032 C192.975928,41.3422432 192.853981,41.3374912 192.732035,41.3129392 C192.391535,41.2424512 192.111216,41.0214832 191.96393,40.7062672 L191.087341,38.8316031 C190.951141,38.5409391 190.669238,38.3500671 190.349327,38.3310591 L188.283363,38.2130511 C187.935736,38.1932511 187.626118,38.0150511 187.43528,37.7235951 C187.24365,37.4329311 187.201681,37.0789071 187.32046,36.7510191 L188.026008,34.805867 C188.135285,34.505699 188.071144,34.169891 187.857342,33.9307069 L186.481088,32.3863069 C186.249073,32.1265309 186.156425,31.7812189 186.226901,31.4398668 C186.296585,31.0993068 186.518306,30.8189388 186.832674,30.6716268 L188.707008,29.7948828 C188.997621,29.6594508 189.189251,29.3759148 189.207464,29.0567388 L189.326243,26.9912027 C189.346039,26.6427227 189.524208,26.3338426 189.814821,26.1421786 C190.105434,25.9505146 190.459395,25.9093306 190.786434,26.0273386 L192.731243,26.7338027 C193.032942,26.8423067 193.367899,26.7781547 193.607041,26.5651067 L195.151961,25.1878186 C195.411691,24.9557626 195.756942,24.8630986 196.097442,24.9335866 C196.437942,25.0032826 196.719052,25.2250426 196.866339,25.5402586 L197.742928,27.4149227 C197.877544,27.7047947 198.16103,27.8964587 198.48015,27.9146747 L200.546114,28.0334747 C200.893741,28.0532747 201.203358,28.2314747 201.394989,28.5221387 C201.585827,28.8128027 201.627796,29.1676188 201.509017,29.4947148 L200.803469,31.4398668 C200.694192,31.7408269 200.758333,32.0766349 200.972135,32.3158189 L202.348389,33.8602189 C202.580404,34.119995 202.673052,34.464515 202.602576,34.805867 C202.532892,35.147219 202.311963,35.427587 201.996803,35.574899 L200.121677,36.451643 C199.831856,36.5862831 199.640226,36.8698191 199.622805,37.1889951 L199.503234,39.2553232 C199.484229,39.6030112 199.305269,39.9126832 199.014656,40.1035552 C198.724043,40.2960112 198.370082,40.3371952 198.042251,40.2183952 L196.097442,39.5127232 C195.796535,39.4034272 195.461578,39.4683712 195.222436,39.6814192 L193.678308,41.0579152 C193.511226,41.2076032 193.308509,41.2986832 193.094707,41.3264032"/>
    <path fill="#224087" d="M190.083816,25.2561682 C189.949991,25.2728002 189.818543,25.3187362 189.698972,25.3923922 C189.432906,25.5547522 189.262656,25.8264082 189.234149,26.1376642 L189.022723,28.4273363 C188.981546,28.8676883 188.704395,29.2478484 188.297379,29.4212964 L186.182319,30.3218004 C185.894874,30.4437684 185.688198,30.6877044 185.613763,30.9918324 C185.541704,31.2951684 185.612971,31.6072165 185.81252,31.8479845 L187.282213,33.6165205 C187.564116,33.9554965 187.636967,34.4219846 187.47226,34.8314486 L186.613091,36.9643047 C186.496688,37.2541767 186.522819,37.5733527 186.685151,37.8394647 C186.848274,38.1063687 187.119882,38.2758567 187.430291,38.3051607 L189.71956,38.5158327 C190.159834,38.5570167 190.540719,38.8350087 190.713345,39.2413048 L191.61369,41.3567368 C191.736429,41.6442329 191.981114,41.8517369 192.283604,41.9246009 C192.586887,41.9982569 192.899672,41.9261849 193.139605,41.7258089 L194.90783,40.2566488 C195.247538,39.9746968 195.713152,39.9018328 196.123336,40.0673608 L198.255024,40.9266808 C198.544845,41.0431048 198.863965,41.0161768 199.130822,40.8538168 C199.397679,40.6914568 199.567137,40.4198008 199.595644,40.1085448 L199.807071,37.8188727 C199.847456,37.3793127 200.125399,36.9983607 200.531623,36.8249127 L202.646683,35.9244086 C202.93492,35.8024406 203.141595,35.5577126 203.215238,35.2543766 C203.288881,34.9510406 203.21603,34.6389926 203.016481,34.3982246 L201.54758,32.6304805 C201.264886,32.2899205 201.192035,31.8242245 201.357534,31.4147604 L202.216702,29.2819044 C202.333898,28.9920324 202.306974,28.6728563 202.143851,28.4067443 C201.98152,28.1398403 201.709912,27.9703523 201.39871,27.9418403 L199.109442,27.7303763 C198.669959,27.6891923 198.289074,27.4112003 198.116449,27.0049043 L197.216103,24.8894722 C197.094157,24.6019762 196.849472,24.3952642 196.545397,24.3208162 C196.242115,24.2479522 195.930122,24.3200242 195.690188,24.5196082 L193.921964,25.9887682 C193.582255,26.2715122 193.11585,26.3443762 192.70725,26.1796402 L190.573977,25.3203202 C190.415605,25.2561682 190.246939,25.2347842 190.083816,25.2561682 M192.671616,42.1645769 C192.526705,42.1835849 192.378628,42.1756649 192.232133,42.1400249 C191.859167,42.0497369 191.559844,41.7962969 191.410182,41.4430648 L190.509837,39.3276328 C190.368886,38.9965767 190.058476,38.7692727 189.699763,38.7368007 L187.410495,38.5245447 C187.02961,38.4896967 186.696237,38.2821927 186.496688,37.9550967 C186.297139,37.6280007 186.265464,37.2367527 186.407208,36.8811447 L187.266376,34.7490806 C187.400992,34.4140646 187.341603,34.0346966 187.111963,33.7574965 L185.643062,31.9889605 C185.398377,31.6943365 185.309689,31.3118004 185.399961,30.9395604 C185.489441,30.5673204 185.743628,30.2679444 186.096006,30.1182564 L188.211066,29.2169604 C188.542855,29.0759844 188.769327,28.7655203 188.802586,28.4067443 L189.014012,26.1170722 C189.048854,25.7361202 189.257113,25.4026882 189.58336,25.2038962 C189.910398,25.0035202 190.301577,24.9718402 190.657123,25.1144002 L192.789603,25.9737202 C193.123768,26.1083602 193.503069,26.0489602 193.780221,25.8184882 L195.548445,24.3493282 C195.843017,24.1046002 196.226278,24.0166882 196.598452,24.1061842 C196.969835,24.1964722 197.269158,24.4499122 197.419611,24.8023522 L198.319165,26.9185763 C198.460908,27.2496323 198.771317,27.4761443 199.13003,27.5094083 L201.418507,27.7208723 C201.800976,27.7565123 202.133557,27.9640163 202.333106,28.2911123 C202.532655,28.6182083 202.565121,29.0094564 202.421794,29.3642724 L201.562626,31.4971285 C201.428009,31.8313525 201.487399,32.2115125 201.71783,32.4887125 L203.186731,34.2572486 C203.431416,34.5518726 203.520105,34.9344086 203.429833,35.3066486 C203.339561,35.6788886 203.086165,35.9782646 202.733787,36.1287446 L200.618728,37.0284567 C200.286938,37.1694327 200.060466,37.4806887 200.027208,37.8394647 L199.815781,40.1291368 C199.780148,40.5100888 199.57268,40.8435208 199.245642,41.0431048 C198.918603,41.2426888 198.528216,41.2751608 198.172671,41.1310168 L196.04019,40.2716968 C195.706817,40.1378488 195.326724,40.1972488 195.049573,40.4269288 L193.280557,41.8968809 C193.10318,42.0449849 192.891753,42.1352729 192.671616,42.1645769"/>
    <path fill="#224087" d="M195.331475,40.8084352 C195.56745,40.7775472 195.811343,40.8108112 196.037815,40.9113952 L198.37222,41.9481233 C198.692923,42.0906833 199.052428,42.0732593 199.358086,41.9013953 C199.663744,41.7287393 199.864877,41.4301552 199.909221,41.0824672 L200.2323,38.5480671 C200.294857,38.0657391 200.614769,37.6570671 201.068505,37.4828271 L203.452005,36.5648991 C203.779835,36.438179 204.022144,36.172067 204.116376,35.834675 C204.210607,35.496491 204.141715,35.143259 203.926329,34.865267 L202.363988,32.8448749 C202.067041,32.4599629 202.004484,31.9451629 202.202449,31.5000589 L203.238202,29.1652428 C203.380737,28.8444827 203.364108,28.4849147 203.191483,28.1792027 C203.018857,27.8734907 202.720326,27.6723227 202.372699,27.6279707 L199.838745,27.3040427 C199.356502,27.2422667 198.947902,26.9222987 198.773693,26.4684827 L197.855927,24.0837706 C197.730021,23.7566745 197.463164,23.5143225 197.125831,23.4200745 C196.787707,23.3258265 196.435329,23.3947305 196.157386,23.6093625 L194.136558,25.1719786 C193.751714,25.4697706 193.236212,25.5315466 192.791979,25.3343386 L190.457574,24.2976106 C190.13687,24.1558426 189.777366,24.1724746 189.4725,24.3443386 C189.166049,24.5169946 188.964917,24.8155786 188.920573,25.1640586 L188.596702,27.6976667 C188.535729,28.1799947 188.215817,28.5886667 187.760497,28.7636987 L185.377789,29.6816268 C185.05075,29.8075548 184.808441,30.0736668 184.713418,30.4118508 C184.619187,30.7500348 184.688078,31.1032668 184.902673,31.3804668 L186.465805,33.4008589 C186.763545,33.7857709 186.82531,34.301363 186.628137,34.745675 L185.590799,37.0804911 C185.449056,37.4020431 185.465685,37.7608191 185.638311,38.0673231 C185.810937,38.3730351 186.109468,38.5734111 186.457095,38.6177631 L188.991048,38.9416911 C189.473291,39.0034671 189.8811,39.3234352 190.056101,39.7780432 L190.973867,42.1619633 C191.099773,42.4898513 191.365838,42.7314113 191.703962,42.8256593 C192.042087,42.9206993 192.394465,42.8517953 192.6732,42.6371633 L194.693236,41.0737552 C194.883282,40.9272352 195.103419,40.8377392 195.331475,40.8084352 M198.985912,42.2546273 C198.749937,42.2855153 198.50842,42.2506673 198.282739,42.1500833 L195.947543,41.1133552 C195.578536,40.9494112 195.149347,41.0008912 194.828644,41.2487872 L192.807816,42.8114033 C192.475235,43.0695953 192.050005,43.1527553 191.644573,43.0387073 C191.238348,42.9254513 190.919229,42.6347873 190.767191,42.2411633 L189.849425,39.8572432 C189.704515,39.4794592 189.364806,39.2125552 188.962541,39.1610752 L186.42938,38.8379391 C186.010485,38.7840831 185.652564,38.5433151 185.445889,38.1758271 C185.238421,37.8083391 185.217833,37.3766991 185.388875,36.9909951 L186.42542,34.656179 C186.590127,34.286315 186.538656,33.8570509 186.290804,33.5370829 L184.727671,31.5158989 C184.469525,31.1824668 184.387171,30.7587468 184.500407,30.3516588 C184.614435,29.9461548 184.905048,29.6261868 185.297811,29.4749148 L187.682103,28.5569867 C188.059029,28.4112587 188.325886,28.0714907 188.378148,27.6699467 L188.701227,25.1355466 C188.754282,24.7173706 188.995799,24.3585946 189.363223,24.1518826 C189.730646,23.9451706 190.163002,23.9245786 190.547846,24.0956506 L192.882251,25.1323786 C193.25205,25.2971146 193.680446,25.2448426 194.00115,24.9977386 L196.021978,23.4343305 C196.355351,23.1761385 196.778996,23.0929785 197.185221,23.2070265 C197.591445,23.3202825 197.911357,23.6109465 198.06181,24.0045706 L198.979577,26.3884906 C199.125279,26.7670667 199.465779,27.0331787 199.867252,27.0846587 L202.401206,27.4085867 C202.818516,27.4616507 203.177229,27.7032107 203.384697,28.0706987 C203.591372,28.4381867 203.611961,28.8698267 203.440127,29.2555308 L202.404373,31.5895549 C202.239666,31.9602109 202.291137,32.3894749 202.539781,32.7094429 L204.102122,34.729835 C204.359477,35.064059 204.442622,35.487779 204.329386,35.894075 C204.21615,36.300371 203.925537,36.6195471 203.531191,36.7708191 L201.148483,37.6895391 C200.769973,37.8344751 200.503116,38.1742431 200.452437,38.5765791 L200.128566,41.1101872 C200.07472,41.5283633 199.833994,41.8871393 199.466571,42.0946433 C199.314534,42.1793873 199.152202,42.2332433 198.985912,42.2546273"/>
    <path fill="#224087" d="M195.085523,41.7102857 C195.362675,41.6746457 195.648536,41.7182057 195.909058,41.8449257 L198.461225,43.0875737 C198.815186,43.2602297 199.219827,43.2546857 199.569038,43.0733177 C199.91904,42.8919497 200.155806,42.5648537 200.218363,42.1759817 L200.67685,39.3746776 C200.763163,38.8464135 201.131378,38.4092295 201.637377,38.2334055 L204.320992,37.3067655 C204.693167,37.1784615 204.974277,36.8893815 205.09464,36.5139735 C205.213419,36.1385654 205.149279,35.7393974 204.919639,35.4194294 L203.262275,33.1147093 C202.950282,32.6799013 202.901187,32.1104533 203.135577,31.6289173 L204.377215,29.0755092 C204.54984,28.7214851 204.544297,28.3175651 204.363753,27.9675011 C204.181625,27.6182291 203.855378,27.3814211 203.466575,27.3172691 L200.665764,26.8602851 C200.136802,26.7731651 199.699695,26.404885 199.523902,25.898797 L198.598217,23.2155009 C198.469143,22.8432609 198.180114,22.5613089 197.804772,22.4417169 C197.429431,22.3229169 197.030333,22.3862769 196.711213,22.6167489 L194.406899,24.273613 C193.972168,24.586453 193.402028,24.634765 192.920577,24.401125 L190.36841,23.1592689 C190.014449,22.9866129 189.6106,22.9913649 189.261389,23.1727329 C188.910595,23.3541009 188.673829,23.6811969 188.61048,24.070069 L188.152785,26.8713731 C188.066472,27.4004291 187.698257,27.8376131 187.191466,28.0126451 L184.509435,28.9392851 C184.13726,29.0675892 183.854566,29.3566692 183.735787,29.7320772 C183.617008,30.1082772 183.680357,30.5066532 183.909996,30.8266212 L185.566568,33.1313413 C185.879353,33.5661493 185.929241,34.1355974 185.694058,34.6179254 L184.452421,37.1705415 C184.279795,37.5245655 184.285338,37.9284855 184.466674,38.2785495 C184.647218,38.6278215 184.974257,38.8646295 185.363852,38.9287815 L188.164663,39.3857656 C188.692834,39.4728856 189.129941,39.8411656 189.304942,40.3472536 L190.231419,43.0305497 C190.3597,43.4027897 190.648729,43.6847417 191.024863,43.8043337 C191.400997,43.9231337 191.799302,43.8597737 192.118422,43.6293017 L194.422736,41.9724377 C194.622285,41.8290857 194.850341,41.7411737 195.085523,41.7102857 M199.185777,43.4225897 C198.908626,43.4590217 198.625932,43.4130857 198.364618,43.2863657 L195.812451,42.0445097 C195.403851,41.8457177 194.920816,41.8869017 194.551809,42.1522217 L192.247495,43.8090857 C191.87057,44.0807418 191.400997,44.1559818 190.957555,44.0150057 C190.515697,43.8740297 190.174405,43.5421817 190.022367,43.1026217 L189.095891,40.4201176 C188.947813,39.9900616 188.57643,39.6780136 188.128237,39.6043576 L185.327427,39.1473736 C184.868939,39.0721336 184.483303,38.7925575 184.270293,38.3799255 C184.055699,37.9672935 184.050156,37.4913015 184.252872,37.0739175 L185.495301,34.5205094 C185.694058,34.1126294 185.652881,33.6287173 185.387608,33.2604373 L183.730244,30.9557172 C183.458636,30.5787252 183.384201,30.1082772 183.52436,29.6655492 C183.665311,29.2228212 183.997893,28.8814691 184.436583,28.7301971 L187.118615,27.8027651 C187.548595,27.6546611 187.86138,27.2840051 187.934231,26.8357331 L188.391927,24.034429 C188.467153,23.5758609 188.745888,23.1901569 189.159239,22.9763169 C189.571007,22.7624769 190.047707,22.7561409 190.465017,22.9596849 L193.017184,24.201541 C193.424992,24.400333 193.908819,24.359149 194.277034,24.093829 L196.58214,22.4369649 C196.958274,22.1653089 197.428639,22.0908609 197.872081,22.2310449 C198.314731,22.3720209 198.655231,22.7038689 198.807268,23.1434289 L199.733745,25.825933 C199.882614,26.255989 200.252413,26.5680371 200.701398,26.6416931 L203.502209,27.0994691 C203.960696,27.1739171 204.34554,27.4534931 204.560134,27.8661251 C204.773145,28.2787571 204.77948,28.7547491 204.575972,29.1721332 L203.334334,31.7255413 C203.135577,32.1342133 203.177546,32.6173333 203.442819,32.9856133 L205.098599,35.2903334 C205.370208,35.6673254 205.445434,36.1377734 205.304483,36.5805015 C205.164324,37.0240215 204.832534,37.3645815 204.393052,37.5166455 L201.710228,38.4432855 C201.280248,38.5913895 200.969047,38.9620455 200.895404,39.4103176 L200.437709,42.2116217 C200.362482,42.6701897 200.083747,43.0558937 199.671188,43.2697337 C199.515983,43.3497257 199.352068,43.4012057 199.185777,43.4225897"/>
    <path fill="#224087" d="M194.772343,42.7033745 C195.096214,42.6613985 195.431171,42.7184225 195.730494,42.8776145 L198.516259,44.3554866 C198.906646,44.5621986 199.358799,44.5724946 199.757896,44.3832066 C200.156994,44.1939186 200.434937,43.8367265 200.52125,43.4035025 L201.138109,40.3107424 C201.253721,39.7309984 201.676574,39.2637184 202.241171,39.0902704 L205.255784,38.1652143 C205.677845,38.0353263 206.005676,37.7224863 206.153754,37.3066863 C206.301831,36.8908863 206.245609,36.4410302 206.001716,36.0735422 L204.250913,33.4504381 C203.922291,32.9593981 203.890616,32.3289661 204.166976,31.8070381 L205.644587,29.021574 C205.852055,28.6311179 205.862349,28.1780939 205.673094,27.7789259 C205.483048,27.3805499 205.12671,27.1017659 204.693563,27.0154379 L201.601348,26.3984698 C201.021706,26.2828378 200.554508,25.8599098 200.380299,25.2952138 L199.455406,22.2800697 C199.326332,21.8579337 199.013547,21.5308377 198.597821,21.3827336 C198.182094,21.2346296 197.732317,21.2892776 197.364894,21.5347977 L194.742252,23.2859097 C194.251298,23.6137977 193.621769,23.6454777 193.099141,23.3682777 L190.313376,21.8904057 C189.923781,21.6836937 189.470837,21.6733977 189.071739,21.8634777 C188.673433,22.0519737 188.394698,22.4091657 188.308385,22.8423897 L187.691526,25.9359418 C187.575914,26.5148939 187.153853,26.9821739 186.588464,27.1564139 L183.57306,28.0814699 C183.150998,28.2105659 182.82396,28.5234059 182.676674,28.9399979 C182.527804,29.355798 182.583234,29.804862 182.828711,30.17235 L184.579514,32.7954541 C184.907345,33.2872861 184.939019,33.9169261 184.661868,34.4388542 L183.184256,37.2251103 C182.976789,37.6155663 182.967286,38.0677983 183.156541,38.4669663 C183.345796,38.8661343 183.702925,39.1441264 184.135281,39.2304544 L187.22908,39.8474224 C187.80793,39.9630544 188.275919,40.3859824 188.449337,40.9506784 L189.37423,43.9658225 C189.503303,44.3887506 189.816088,44.7158466 190.232606,44.8639506 C190.648333,45.0120546 191.096526,44.9566146 191.463949,44.7110946 L194.087383,42.9607745 C194.296434,42.8205905 194.531617,42.7350545 194.772343,42.7033745 M199.366717,44.7269346 C199.043638,44.7681186 198.711849,44.7095106 198.412525,44.5511106 L195.62676,43.0732385 C195.176983,42.8340545 194.633767,42.8617745 194.210122,43.1445185 L191.58748,44.8956306 C191.160667,45.1791666 190.639623,45.2441106 190.158172,45.0722466 C189.675137,44.9003826 189.312464,44.5210146 189.162011,44.0307665 L188.237118,41.0156224 C188.088248,40.5285424 187.685191,40.1642224 187.185527,40.0644304 L184.093312,39.4474624 C183.590481,39.3476704 183.175546,39.0245344 182.956992,38.5620063 C182.737647,38.0986863 182.748733,37.5735903 182.988667,37.1213583 L184.466278,34.3351022 C184.70542,33.8852461 184.678497,33.3419341 184.395803,32.9190061 L182.644999,30.29511 C182.359929,29.869014 182.295789,29.347878 182.467622,28.8655499 C182.639456,28.3824299 183.018757,28.0196939 183.508919,27.8700059 L186.523532,26.9449499 C187.010526,26.7952619 187.374782,26.3921338 187.474556,25.8923818 L188.090624,22.7996217 C188.19119,22.2967017 188.515061,21.8824857 188.977508,21.6631017 C189.439954,21.4437177 189.964958,21.4548057 190.41711,21.6955737 L193.202875,23.1734457 C193.653444,23.4118377 194.195076,23.3841177 194.619514,23.1013737 L197.242156,21.3510536 C197.668176,21.0667256 198.189221,21.0017816 198.672256,21.1736456 C199.154499,21.3463016 199.517171,21.7256697 199.667624,22.2151257 L200.592517,25.2302698 C200.741387,25.7173498 201.145236,26.0816698 201.6449,26.1814618 L204.737115,26.7984299 C205.239155,26.8982219 205.653298,27.2213579 205.873435,27.6846779 C206.09278,28.1472059 206.080111,28.6723019 205.840969,29.124534 L204.362565,31.9107901 C204.125007,32.3606461 204.15193,32.9039581 204.433833,33.3276781 L206.184636,35.9507822 C206.468914,36.3768782 206.533847,36.8980143 206.362013,37.3811343 C206.190179,37.8634623 205.810086,38.2261983 205.320716,38.3766783 L202.306103,39.3017344 C201.819109,39.4514224 201.454061,39.8537584 201.355079,40.3543024 L200.73822,43.4470625 C200.637653,43.9491905 200.315366,44.3634066 199.852128,44.5835826 C199.696131,44.6572386 199.532216,44.7047586 199.366717,44.7269346"/>
    <path fill="#224087" d="M194.380292,43.7943545 C194.758802,43.7452505 195.149189,43.8189065 195.491273,44.0161145 L198.527266,45.7656426 C198.955662,46.0127466 199.462453,46.0412586 199.916189,45.8448426 C200.369925,45.6484266 200.69538,45.2603466 200.808616,44.7788106 L201.613938,41.3684584 C201.7636,40.7332744 202.248218,40.2335224 202.876956,40.0648264 L206.261367,39.1540264 C206.738067,39.0257224 207.117369,38.6883303 207.298705,38.2281783 C207.481624,37.7688183 207.436488,37.2635223 207.175966,36.8429703 L205.334099,33.8610901 C204.991223,33.3066901 204.980929,32.6113141 205.306384,32.0466181 L207.054812,29.01009 C207.301872,28.5816179 207.330379,28.0747379 207.133998,27.6209219 C206.937616,27.1663139 206.549605,26.8415939 206.068945,26.7275459 L202.658402,25.9228738 C202.02333,25.7731858 201.523666,25.2884818 201.355792,24.6588418 L200.445152,21.2746256 C200.316079,20.7970496 199.978746,20.4184736 199.519467,20.2363136 C199.059396,20.0541536 198.554189,20.0992976 198.133711,20.3590736 L195.153148,22.2020577 C194.598054,22.5442017 193.902801,22.5552897 193.338996,22.2297777 L190.302211,20.4802496 C189.873814,20.2331456 189.367816,20.2046336 188.913288,20.4010496 C188.459552,20.5974656 188.134097,20.9863376 188.020861,21.4678737 L187.215539,24.8782258 C187.066669,25.5126178 186.581258,26.0123698 185.951729,26.1818578 L182.568901,27.0918659 C182.090618,27.2209619 181.7129,27.5583539 181.52998,28.0177139 C181.348644,28.4778659 181.39378,28.98237 181.653511,29.403714 L183.495378,32.3848021 C183.838254,32.9392021 183.848548,33.6345781 183.523093,34.2000662 L181.774665,37.2365943 C181.528397,37.6650663 181.498306,38.1711543 181.694687,38.6257623 C181.891861,39.0795784 182.279872,39.4050904 182.761323,39.5183464 L186.171867,40.3238104 C186.806147,40.4734984 187.305019,40.9574104 187.474477,41.5870505 L188.385117,44.9712666 C188.513398,45.4488426 188.850731,45.8274186 189.310802,46.0095786 C189.770873,46.1917386 190.275288,46.1473866 190.696557,45.8868186 L193.676329,44.0446266 C193.894882,43.9099865 194.134024,43.8260345 194.380292,43.7943545 M199.523426,46.1814426 C199.145709,46.2305466 198.759281,46.1545146 198.417197,45.9573066 L195.381204,44.2077786 C194.887083,43.9234505 194.278142,43.9329545 193.792732,44.2331226 L190.812169,46.0753146 C190.33151,46.3723146 189.754243,46.4237946 189.228448,46.2154986 C188.703445,46.0072026 188.3186,45.5747706 188.171314,45.0290826 L187.261467,41.6448665 C187.112597,41.0936344 186.676282,40.6699144 186.120396,40.5392344 L182.710644,39.7337704 C182.160301,39.6038824 181.716068,39.2316424 181.491971,38.7128823 C181.267083,38.1941223 181.300341,37.6159623 181.583035,37.1257143 L183.331463,34.0891862 C183.616533,33.5949781 183.607822,32.9859301 183.307707,32.5004341 L181.465048,29.520138 C181.167308,29.039394 181.116629,28.4620259 181.324888,27.9361379 C181.532356,27.4110419 181.965504,27.0253379 182.511887,26.8788179 L185.894715,25.9680178 C186.445058,25.8199138 186.869496,25.3827298 187.000153,24.8275378 L187.804683,21.4163937 C187.934548,20.8667456 188.306722,20.4224336 188.825391,20.1982976 C189.344852,19.9733696 189.92291,20.0066336 190.41228,20.2885856 L193.448273,22.0381137 C193.942394,22.3232337 194.551334,22.3129377 195.036745,22.0135617 L198.0181,20.1705776 C198.497967,19.8735776 199.075233,19.8220976 199.601029,20.0311856 C200.126032,20.2386896 200.511668,20.6719136 200.658954,21.2176016 L201.568802,24.6018178 C201.71688,25.1522578 202.153195,25.5767698 202.709873,25.7074498 L206.119624,26.5121219 C206.669967,26.6420099 207.113409,27.0142499 207.337506,27.5330099 C207.561602,28.0517699 207.528344,28.6307219 207.247234,29.120178 L205.498014,32.1567061 C205.213736,32.6517061 205.222446,33.2599621 205.522562,33.7454581 L207.364429,36.7265463 C207.661377,37.2072903 207.712848,37.7846583 207.504588,38.3097543 C207.297121,38.8356423 206.864765,39.2213464 206.318381,39.3678664 L202.935553,40.2786664 C202.383627,40.4267704 201.959981,40.8631624 201.829324,41.4191464 L201.024794,44.8294986 C200.894929,45.3799386 200.522754,45.8242506 200.004086,46.0483866 C199.848089,46.1157066 199.68655,46.1600586 199.523426,46.1814426"/>
    <path fill="#224087" d="M193.896228,44.991225 C194.336503,44.934201 194.791031,45.027657 195.181418,45.271593 L198.48506,47.3315851 C198.954633,47.6246251 199.51923,47.6768971 200.034731,47.4749371 C200.550232,47.2729771 200.929533,46.8508411 201.075235,46.317033 L202.100695,42.5613689 C202.290741,41.8667849 202.844252,41.3337688 203.54584,41.1714088 L207.33806,40.2914968 C207.877317,40.1663608 208.313632,39.8036248 208.535353,39.2967448 C208.757074,38.7890727 208.726983,38.2227927 208.452208,37.7420487 L206.521652,34.3610006 C206.165315,33.7353205 206.18036,32.9670805 206.561245,32.3564485 L208.621666,29.0522244 C208.913862,28.5825683 208.966125,28.0170803 208.764201,27.5022803 C208.562276,26.9866883 208.140215,26.6073203 207.606501,26.4615923 L203.850706,25.4351602 C203.156245,25.2458722 202.624115,24.6922642 202.460991,23.9905522 L201.582026,20.197664 C201.456912,19.658312 201.09424,19.22192 200.587449,19.00016 C200.079867,18.7783999 199.513687,18.8084959 199.033027,19.08332 L195.652575,21.013424 C195.027005,21.370616 194.259692,21.355568 193.648376,20.974616 L190.344734,18.914624 C189.875161,18.6215839 189.310564,18.5693119 188.795063,18.7712719 C188.279562,18.973232 187.90026,19.395368 187.754558,19.929176 L186.728307,23.6856321 C186.539052,24.3802162 185.985542,24.9124402 185.283953,25.0748002 L181.491733,25.9547122 C180.952476,26.0798482 180.516161,26.4425843 180.29444,26.9494643 C180.072719,27.4563443 180.10281,28.0234163 180.377586,28.5041603 L182.30735,31.8852085 C182.663687,32.5108885 182.649434,33.2791285 182.268549,33.8897605 L180.208919,37.1939847 C179.915931,37.6636407 179.863668,38.2283367 180.065593,38.7439287 C180.267517,39.2595208 180.688787,39.6388888 181.223293,39.7846168 L184.978295,40.8110488 C185.672757,41.0003368 186.205679,41.5539449 186.36801,42.2556569 L187.247767,46.048545 C187.372881,46.5878971 187.735554,47.0242891 188.242344,47.2460491 C188.749927,47.4678091 189.316107,47.4377131 189.796766,47.1628891 L193.178011,45.232785 C193.402899,45.103689 193.647584,45.023697 193.896228,44.991225 M199.647511,47.8012411 C199.206445,47.8590571 198.758252,47.7632251 198.367864,47.5192891 L195.065014,45.459297 C194.52259,45.121905 193.84159,45.108441 193.286496,45.424449 L189.906043,47.3553451 C189.364411,47.6642251 188.726171,47.6990731 188.153656,47.4488011 C187.581933,47.1993211 187.173333,46.7066971 187.032381,46.098441 L186.152624,42.3055529 C186.008506,41.6830409 185.535765,41.1927928 184.920489,41.0240968 L181.164695,39.9984568 C180.562881,39.8337208 180.087765,39.4060408 179.858917,38.8247127 C179.631653,38.2433847 179.691043,37.6066167 180.021249,37.0767687 L182.080878,33.7725445 C182.419002,33.2308165 182.431672,32.5504885 182.11572,31.9952965 L180.185164,28.6134563 C179.875546,28.0717283 179.841496,27.4325843 180.091724,26.8607603 C180.341952,26.2889362 180.833697,25.8802642 181.441054,25.7392882 L185.234066,24.8593762 C185.856469,24.7152322 186.34663,24.2432002 186.515296,23.6270241 L187.541548,19.870568 C187.705463,19.268648 188.133067,18.7926559 188.714293,18.5653519 C189.294727,18.3372559 189.932175,18.3958639 190.461929,18.7269199 L193.765571,20.786912 C194.307204,21.125096 194.988204,21.137768 195.542506,20.820968 L198.92375,18.890864 C199.465383,18.5811919 200.104414,18.5471359 200.676138,18.7974079 C201.247861,19.04768 201.657253,19.539512 201.798204,20.147768 L202.677169,23.9406562 C202.821288,24.5631682 203.293237,25.0534162 203.909304,25.2221122 L207.665098,26.2477522 C208.266121,26.4124882 208.742821,26.8401683 208.970085,27.4214963 C209.197349,28.0020323 209.138751,28.6395923 208.808545,29.1694404 L206.748124,32.4736645 C206.411583,33.0153925 206.398122,33.6965125 206.714074,34.2509126 L208.64463,37.6319607 C208.954247,38.1744807 208.988297,38.8136247 208.738069,39.3854488 C208.488633,39.9572728 207.996096,40.3659448 207.387947,40.5069208 L203.595727,41.3868328 C202.974117,41.5309769 202.483163,42.0038009 202.314497,42.6191849 L201.289038,46.375641 C201.124331,46.9775611 200.696726,47.4535531 200.115501,47.6808571 C199.962671,47.7410491 199.805091,47.7806491 199.647511,47.8012411"/>
    <path fill="#224087" d="M193.304629,46.3026186 C193.816963,46.2360906 194.344342,46.3548906 194.788576,46.6534747 L198.376496,49.0690747 C198.890413,49.4143868 199.51915,49.4951708 200.103543,49.2892508 C200.687145,49.0841228 201.127419,48.6271387 201.310339,48.0363067 L202.595528,43.9052345 C202.831503,43.1457065 203.463408,42.5786345 204.244182,42.4257785 L208.490138,41.5965545 C209.096703,41.4777544 209.598743,41.0896744 209.866391,40.5313144 C210.13404,39.9737464 210.122162,39.3393544 209.833925,38.7912903 L207.821808,34.9611782 C207.452009,34.2570902 207.498729,33.4096501 207.94217,32.7499141 L210.358137,29.16057 C210.703388,28.6473539 210.783366,28.0177139 210.578274,27.4340099 C210.373182,26.8495139 209.916279,26.4099538 209.324759,26.2254178 L205.195206,24.9407938 C204.435812,24.7039858 203.86884,24.0727618 203.716011,23.2918497 L202.886933,19.0451456 C202.768154,18.4384735 202.380142,17.9363455 201.821881,17.6686495 C201.264411,17.4009535 200.630131,17.4128335 200.082163,17.7011215 L196.252726,19.7135936 C195.548762,20.0834576 194.701471,20.0375216 194.041851,19.5932096 L190.452348,17.1776095 C189.939222,16.8315055 189.310485,16.7507215 188.726884,16.9566415 C188.142491,17.1625615 187.703008,17.6187535 187.518505,18.2103775 L186.233315,22.3414497 C185.997341,23.1009777 185.366228,23.6672577 184.585453,23.8201137 L180.340289,24.6501298 C179.73214,24.7689298 179.230893,25.1562178 178.963244,25.7145778 C178.695595,26.2729378 178.707473,26.9073299 178.99571,27.4553939 L181.007828,31.285506 C181.376835,31.9895941 181.331698,32.8370341 180.886673,33.4967701 L178.47229,37.0861143 C178.126247,37.5993303 178.045477,38.2289703 178.251361,38.8126743 C178.457245,39.3963784 178.913357,39.8367304 179.504084,40.0204744 L183.634429,41.3050984 C184.394615,41.5419065 184.960795,42.1739225 185.113624,42.9540425 L185.942702,47.2007467 C186.062273,47.8082107 186.450285,48.3103387 187.007755,48.5772427 C187.565224,48.8449387 188.199505,48.8330587 188.747472,48.5455627 L192.576909,46.5330906 C192.808133,46.4111226 193.055193,46.3350906 193.304629,46.3026186 M199.729785,49.6052588 C199.215868,49.6717868 198.696407,49.5506108 198.252965,49.2528188 L194.665046,46.8364267 C194.072734,46.4380506 193.312548,46.3968666 192.679851,46.7287147 L188.850414,48.7411867 C188.239889,49.0619467 187.53355,49.0746188 186.911939,48.7768267 C186.290329,48.4790347 185.857973,47.9198827 185.725732,47.2427227 L184.896654,42.9968105 C184.758871,42.2958905 184.250496,41.7288185 183.569496,41.5165624 L179.43836,40.2319384 C178.780324,40.0268104 178.27195,39.5365624 178.043102,38.8863303 C177.814254,38.2353063 177.903734,37.5343863 178.287787,36.9625623 L180.703753,33.3732181 C181.102059,32.7808021 181.144028,32.0204821 180.812238,31.387674 L178.80012,27.5583539 C178.478625,26.9477219 178.465955,26.2404658 178.763695,25.6187458 C179.062226,24.9970258 179.62128,24.5645938 180.297529,24.4323298 L184.543485,23.6031057 C185.243489,23.4660897 185.810461,22.9568337 186.02268,22.2757137 L187.30787,18.1446415 C187.512962,17.4856975 188.003123,16.9772335 188.653241,16.7483455 C189.303358,16.5194575 190.004155,16.6081615 190.57667,16.9938655 L194.165382,19.4094656 C194.757693,19.8086336 195.517879,19.8498176 196.149784,19.5171776 L199.979221,17.5047055 C200.588954,17.1839455 201.296085,17.1712735 201.917696,17.4690655 C202.539306,17.7676495 202.971662,18.3260095 203.103903,19.0031696 L203.932981,23.2498737 C204.070765,23.9500018 204.578347,24.5170738 205.260931,24.7293298 L209.390483,26.0147458 C210.049311,26.2198738 210.558478,26.7101219 210.786533,27.3603539 C211.016173,28.0105859 210.926693,28.7122979 210.541848,29.284122 L208.125882,32.8734661 C207.727576,33.4658821 207.685608,34.2262022 208.018189,34.8582182 L210.030307,38.6883303 C210.350218,39.2989624 210.36368,40.0054264 210.06594,40.6271464 C209.768201,41.2488664 209.209147,41.6820905 208.532107,41.8143545 L204.286942,42.6435785 C203.586146,42.7805945 203.019174,43.2890585 202.806955,43.9709705 L201.522557,48.1020427 C201.317466,48.7601947 200.827304,49.2694508 200.177186,49.4983388 C200.0299,49.5498188 199.880239,49.5854588 199.729785,49.6052588"/>
    <path fill="#224087" d="M192.590054,47.7361387 C193.184742,47.6593147 193.796058,47.8082107 194.297306,48.1717387 L198.188508,50.9936348 C198.748353,51.3991388 199.448358,51.5139788 200.107978,51.3072668 C200.768389,51.1005548 201.277556,50.6071388 201.506403,49.9545308 L203.093292,45.4171626 C203.383113,44.5871466 204.102914,43.9852265 204.970793,43.8466265 L209.717205,43.0902665 C210.400581,42.9817625 210.976263,42.5675465 211.296175,41.9545385 C211.616878,41.3415304 211.628756,40.6326904 211.328641,40.0093864 L209.242089,35.6787302 C208.861204,34.8867302 208.944349,33.9521701 209.460642,33.2401621 L212.282041,29.348274 C212.688266,28.7883299 212.802293,28.0882019 212.595618,27.4284659 C212.388942,26.7687299 211.896405,26.2586818 211.243912,26.0305858 L206.706551,24.4434178 C205.87589,24.1535458 205.275659,23.4328257 205.137084,22.5647937 L204.380857,17.8175455 C204.27158,17.1348415 203.857437,16.5590575 203.244537,16.2382974 C202.632429,15.9183294 201.922922,15.9064494 201.30052,16.2058254 L196.969835,18.2927455 C196.177182,18.6744895 195.243579,18.5905375 194.531696,18.0741535 L190.640494,15.2522574 C190.080648,14.8467534 189.380644,14.7327054 188.721024,14.9386254 C188.061404,15.1461294 187.552238,15.6387534 187.324182,16.2913614 L185.737294,20.8287296 C185.446681,21.6595377 184.726088,22.2606657 183.859,22.3992657 L179.111797,23.1556257 C178.429213,23.2649217 177.854322,23.6791377 177.532827,24.2913538 C177.212915,24.9043618 177.201037,25.6132018 177.500361,26.2365058 L179.586913,30.567162 C179.96859,31.359954 179.884653,32.2937221 179.369151,33.0057301 L176.546961,36.8976183 C176.141528,37.4575623 176.0275,38.1576903 176.234176,38.8174263 C176.440059,39.4779544 176.933389,39.9872104 177.586673,40.2153064 L182.123242,41.8024745 C182.953112,42.0931385 183.554926,42.8130665 183.693502,43.6810985 L184.449728,48.4283467 C184.558213,49.1118428 184.972356,49.6868348 185.584464,50.0075948 C186.198156,50.3283548 186.905288,50.3402348 187.529274,50.0400668 L191.859167,47.9531467 C192.093558,47.8406827 192.340618,47.7686107 192.590054,47.7361387 M199.759559,51.6098109 C199.161705,51.6874269 198.559891,51.5353628 198.058643,51.1726268 L194.16744,48.3507307 C193.522074,47.8826587 192.673991,47.8066267 191.954982,48.1527307 L187.625089,50.2396508 C186.939338,50.5699148 186.157771,50.5572428 185.481523,50.2040108 C184.806857,49.8499868 184.350746,49.2163868 184.230383,48.4631947 L183.474156,43.7159465 C183.349042,42.9279065 182.80345,42.2745065 182.049599,42.0115625 L177.51303,40.4243944 C176.794021,40.1725384 176.250013,39.6110104 176.022749,38.8831623 C175.795485,38.1561063 175.920599,37.3846983 176.368792,36.7677303 L179.189399,32.8758421 C179.658181,32.2295701 179.734199,31.38213 179.387364,30.662994 L177.301604,26.3323378 C176.970606,25.6456738 176.984068,24.8647618 177.337237,24.1891858 C177.690407,23.5136097 178.323896,23.0574177 179.077747,22.9370337 L183.824159,22.1806737 C184.611268,22.0547457 185.264553,21.5090577 185.528242,20.7558656 L187.114339,16.2184974 C187.366151,15.4985694 187.92758,14.9552574 188.655299,14.7279534 C189.381436,14.4998574 190.1535,14.6257854 190.770359,15.0732654 L194.661561,17.8951615 C195.30772,18.3640255 196.15501,18.4392655 196.87402,18.0931615 L201.203913,16.0070334 C201.890456,15.6767694 202.67123,15.6894414 203.347479,16.0418814 C204.022144,16.3959055 204.479048,17.0295055 204.598619,17.7826975 L205.354845,22.5299457 C205.480751,23.3179857 206.026343,23.9713858 206.779403,24.2343298 L211.315971,25.8222898 C212.035772,26.0733538 212.578989,26.6348819 212.806253,27.3627299 C213.034309,28.0897859 212.908403,28.8611939 212.461002,29.478162 L209.639603,33.3700501 C209.171613,34.0163222 209.096386,34.8637622 209.441638,35.5828982 L211.52819,39.9135544 C211.858396,40.6002184 211.844934,41.3819224 211.492556,42.0574985 C211.139386,42.7330745 210.505106,43.1884745 209.752047,43.3088585 L205.006427,44.0652186 C204.218526,44.1911466 203.564449,44.7368346 203.301551,45.4900266 L201.714663,50.0281868 C201.462851,50.7473228 200.901422,51.2906348 200.174494,51.5179388 C200.03671,51.5614988 199.898135,51.5915949 199.759559,51.6098109"/>
    <path fill="#224087" d="M191.731757,49.301606 C192.420675,49.21211 193.128599,49.39823 193.693987,49.838582 L197.905101,53.1230061 C198.514042,53.5982061 199.290065,53.7534381 200.035206,53.5475181 C200.780347,53.3431821 201.367907,52.8125421 201.647434,52.0926141 L203.585908,47.1156859 C203.939078,46.2096378 204.76578,45.5712858 205.722348,45.4532778 L211.02227,44.7967098 L211.037316,44.7951258 C211.797502,44.6961258 212.449995,44.2581498 212.829296,43.5904937 C213.210973,42.9188777 213.251358,42.1284617 212.940156,41.4212056 L210.792631,36.5313975 C210.401452,35.6403974 210.528941,34.6115894 211.127588,33.8441413 L214.411433,29.6322852 C214.885758,29.0232372 215.041754,28.2462851 214.836662,27.5018051 C214.63157,26.7573251 214.101024,26.168869 213.381223,25.888501 L208.405171,23.950477 C207.499283,23.5972449 206.861835,22.7783169 206.742264,21.8128689 L206.086604,16.5128047 C205.991581,15.7461486 205.552098,15.0872046 204.8806,14.7054606 C204.209103,14.3237166 203.418826,14.2833246 202.711694,14.5937886 L197.821956,16.7424847 C196.931905,17.1337327 195.903278,17.0054287 195.135965,16.4074687 L190.924059,13.1230445 C190.31591,12.6486365 189.539095,12.4926125 188.794746,12.6985325 C188.049605,12.9028685 187.462045,13.4335085 187.181726,14.1534366 L185.244044,19.1303648 C184.892458,20.0316608 184.080801,20.6676368 183.122649,20.7911888 C183.117106,20.7919808 183.111563,20.7927728 183.106812,20.7935648 L177.80689,21.4493409 L177.792636,21.4509249 C177.03245,21.5499249 176.379957,21.9879009 176.000656,22.6555569 C175.618979,23.3271729 175.578594,24.117589 175.889004,24.824845 L178.037321,29.7154452 C178.4285,30.6056532 178.300219,31.6344613 177.702364,32.4019093 L174.418519,36.6137655 C173.943402,37.2236055 173.78899,37.9997655 173.994082,38.7442455 C174.198382,39.4895176 174.728136,40.0771816 175.448729,40.3575496 L180.424781,42.2955737 C181.330669,42.6488057 181.968117,43.4677337 182.086896,44.4331818 L182.743348,49.733246 C182.838371,50.500694 183.277062,51.158846 183.949352,51.54059 C184.620849,51.9223341 185.411126,51.9627261 186.118258,51.6522621 L191.007204,49.503566 C191.241595,49.400606 191.484696,49.334078 191.731757,49.301606 M199.724797,53.8358061 C199.029543,53.9260941 198.333498,53.7375981 197.768901,53.2972461 L193.557787,50.012822 C192.855407,49.46555 191.911509,49.348334 191.096685,49.706318 L186.206946,51.8550141 C185.435674,52.1939901 184.572546,52.1496381 183.839283,51.7330461 C183.106812,51.315662 182.626945,50.597318 182.524003,49.760966 L181.86755,44.4601098 C181.758274,43.5762377 181.174673,42.8254217 180.344011,42.5022857 L175.36796,40.5634696 C174.583226,40.2577576 174.003584,39.6162376 173.780279,38.8028535 C173.556975,37.9902615 173.725641,37.1428215 174.243518,36.4783334 L177.528155,32.2656853 C178.075331,31.5631813 178.192526,30.6199092 177.834605,29.8041492 L175.686287,24.914341 C175.347371,24.142141 175.391715,23.2796529 175.809026,22.5462609 C176.224753,21.8128689 176.940594,21.3321248 177.779967,21.2299568 L183.079889,20.5741808 C183.08464,20.5733888 183.089391,20.5725968 183.094142,20.5718048 C183.972316,20.4585488 184.715873,19.8764288 185.037368,19.0503728 L186.975843,14.0734446 C187.281501,13.2869885 187.922908,12.7088285 188.736148,12.4846925 C189.549389,12.2613485 190.395888,12.4300445 191.060259,12.9488045 L195.272165,16.2332286 C195.974545,16.7805007 196.918443,16.8985087 197.733267,16.5397327 L202.622214,14.3910366 C203.39507,14.0520606 204.256614,14.0964126 204.989877,14.5130046 C205.72314,14.9303886 206.202215,15.6487326 206.305949,16.4850847 L206.96161,21.7859409 C207.071678,22.6706049 207.654488,23.4206289 208.485149,23.7437649 L213.461201,25.682581 C214.247518,25.988293 214.825576,26.6306051 215.048881,27.4431971 C215.272977,28.2557891 215.104311,29.1032292 214.585642,29.7677172 L211.301797,33.9803654 C210.75383,34.6828694 210.636634,35.6261414 210.994555,36.4419014 L213.143665,41.3317096 C213.482581,42.1039097 213.438237,42.9671897 213.021718,43.6997897 C212.607575,44.4284298 211.895692,44.9067978 211.065823,45.0145098 C211.06028,45.0153018 211.054737,45.0153018 211.049194,45.0160938 L205.750063,45.6726618 C205.745312,45.6726618 205.739769,45.6734538 205.73581,45.6742458 C204.857636,45.7882938 204.114079,46.3696218 203.791792,47.1956779 L201.854109,52.1733981 C201.547659,52.9590621 200.906252,53.5380141 200.094595,53.7613581 C199.971065,53.7946221 199.847535,53.8199661 199.724797,53.8358061"/>
    <path fill="#224087" d="M190.707881,51.0078116 C191.506076,50.9048516 192.323276,51.1345316 192.958349,51.6659637 L197.507587,55.4770678 C198.167999,56.0298838 199.026376,56.2334278 199.86654,56.0338438 C200.705912,55.8342598 201.381369,55.2648118 201.722661,54.4728118 L204.06736,49.0214755 C204.492589,48.0330595 205.420649,47.3606515 206.494412,47.2656115 L212.404859,46.7420995 C213.26086,46.6668595 214.015503,46.2019554 214.466863,45.4669794 C214.919016,44.7335874 214.995034,43.8528833 214.676706,43.0513793 L212.480085,37.5382671 C212.08178,36.5387631 212.263908,35.404619 212.95441,34.580147 L216.764051,30.0301068 C217.317561,29.3687868 217.520277,28.5086747 217.320729,27.6699467 C217.12118,26.8312187 216.553416,26.1548506 215.761555,25.8142906 L210.310388,23.4683865 C209.322146,23.0430825 208.649064,22.1132745 208.554041,21.0416984 L208.031413,15.1294182 C207.955395,14.2708902 207.490572,13.5192821 206.75731,13.0670501 C206.023255,12.6148181 205.142706,12.5387861 204.342135,12.8579621 L198.829202,15.0541782 C197.829874,15.4525542 196.69593,15.2703942 195.871603,14.5797702 L191.322365,10.769458 C190.661161,10.216642 189.801993,10.013098 188.962621,10.212682 C188.12404,10.412266 187.447791,10.980922 187.107291,11.7729221 L184.761801,17.2250503 C184.336572,18.2134663 183.409303,18.8858744 182.33554,18.9809144 L176.424301,19.5036344 C175.563549,19.5796664 174.814449,20.0445704 174.362297,20.7787544 C173.910144,21.5129385 173.834126,22.3936425 174.154037,23.1943545 L176.349075,28.7082587 C176.747381,29.7077628 176.566044,30.8411148 175.875542,31.6663789 L172.065109,36.216419 C171.511599,36.8769471 171.308883,37.7378511 171.508431,38.5757871 C171.70798,39.4145152 172.277328,40.0908832 173.069189,40.4322352 L178.518772,42.7773473 C179.507014,43.2026513 180.180096,44.1324594 180.275119,45.2048274 L180.797747,51.1163156 C180.873766,51.9756357 181.338588,52.7272437 182.072642,53.1786837 C182.806697,53.6309157 183.688038,53.7069477 184.488609,53.3877717 L189.999958,51.1915556 C190.230389,51.0996836 190.467947,51.0386996 190.707881,51.0078116 M199.609185,56.3054998 C198.803071,56.4100438 197.999333,56.1771958 197.365052,55.6457638 L192.815814,51.8354517 C192.053252,51.1970996 191.006412,51.0291956 190.082311,51.3974756 L184.57017,53.5936917 C183.703875,53.9390037 182.751267,53.8566357 181.956239,53.3671797 C181.162003,52.8785157 180.659963,52.0651317 180.57761,51.1361156 L180.054982,45.2246274 C179.967085,44.2338354 179.344683,43.3737233 178.431668,42.9808913 L172.9805,40.6349872 C172.124499,40.2667072 171.509223,39.5348992 171.293045,38.6272671 C171.076867,37.7196351 171.297005,36.7890351 171.895651,36.074651 L175.705292,31.5238189 C176.343532,30.7619148 176.511406,29.7140988 176.143983,28.7898347 L173.948154,23.2767225 C173.602111,22.4102745 173.685256,21.4574985 174.173834,20.6631224 C174.662412,19.8687464 175.473277,19.3658264 176.405297,19.2834584 L182.315744,18.7607383 C183.306361,18.6728263 184.16553,18.0511063 184.558292,17.1371383 L186.903783,11.6858021 C187.27279,10.828858 188.004469,10.213474 188.91115,9.997258 C189.819414,9.78104199 190.74985,10.001218 191.464108,10.59997 L196.013346,14.4102822 C196.775908,15.0486342 197.822748,15.2173302 198.746849,14.8490502 L204.259782,12.6528341 C205.125285,12.3075221 206.078685,12.3898901 206.872921,12.8785541 C207.667157,13.3680101 208.169989,14.1806022 208.25155,15.1104102 L208.77497,21.0218984 C208.862867,22.0126905 209.484477,22.8728025 210.397492,23.2656345 L215.84866,25.6107466 C216.705453,25.9790266 217.319937,26.7116267 217.536907,27.6192587 C217.752293,28.5260987 217.532947,29.4574908 216.934301,30.1718748 L213.12466,34.722707 C212.485628,35.484611 212.317754,36.5324271 212.685969,37.4566911 L214.881798,42.9698033 C215.227049,43.8362513 215.143904,44.7890274 214.655326,45.5834034 C214.166748,46.3777794 213.353508,46.8806995 212.424655,46.9630675 L206.514208,47.4857875 C205.525967,47.5736995 204.66363,48.1954195 204.270868,49.1093876 L201.926169,54.5607238 C201.557162,55.4176678 200.824691,56.0330518 199.918011,56.2484758 C199.815069,56.2730278 199.712127,56.2920358 199.609185,56.3054998"/>
    <path fill="#224087" d="M189.493801,52.8640221 C190.417902,52.7444301 191.359424,53.0287581 192.070515,53.6663181 L196.973715,58.0745903 C197.689557,58.7169023 198.642165,58.9766783 199.582895,58.7873903 C200.526001,58.5973103 201.302024,57.9890543 201.713,57.1194383 L204.528064,51.157262 C205.03723,50.07935 206.095156,49.371302 207.280571,49.307942 L213.864099,48.9562939 C214.82621,48.9048139 215.680627,48.4161499 216.213549,47.6154379 C216.74568,46.8139339 216.864459,45.8350218 216.540588,44.9297658 L214.316252,38.7220695 C213.913986,37.6013895 214.157879,36.3539894 214.954491,35.4685334 L219.361987,30.5636772 C220.004185,29.8477092 220.263916,28.8965171 220.073869,27.9540371 C219.884615,27.0107651 219.276466,26.234605 218.407795,25.823557 L212.445085,23.0079969 C211.368947,22.4995329 210.660232,21.4445889 210.596091,20.2550048 L210.245297,13.6703165 C210.193826,12.7096205 209.705248,11.8526765 208.904677,11.3204524 C208.103314,10.7882284 207.125366,10.6694284 206.219478,10.9933564 L200.012875,13.2188765 C198.891601,13.6204205 197.645213,13.3756925 196.759912,12.5797325 L191.855129,8.17225232 C191.140079,7.5291483 190.189846,7.26937229 189.24674,7.4586603 C188.303634,7.6487403 187.527611,8.25699633 187.116635,9.12661236 L184.300779,15.0895806 C183.793197,16.1667006 182.736855,16.8747487 181.549064,16.9381087 L174.964744,17.2897567 C174.003426,17.3412367 173.148216,17.8299007 172.616878,18.6314047 C172.083956,19.4321168 171.964385,20.4110288 172.289048,21.3162848 L174.513384,27.5239811 C174.916441,28.6446611 174.670964,29.8920612 173.874352,30.7783092 L169.467649,35.6831654 C168.824658,36.3975494 168.564928,37.3495335 168.755766,38.2928055 C168.945021,39.2352856 169.552378,40.0114456 170.422632,40.4224936 L176.383758,43.2380537 C177.46148,43.7473097 178.169404,44.8014618 178.232752,45.9910458 L178.58513,52.5765261 C178.635809,53.5372221 179.124387,54.3933742 179.92575,54.9255982 C180.726321,55.4578222 181.705061,55.5774142 182.610157,55.2526942 L188.81676,53.0279661 C189.038481,52.9479741 189.265745,52.8941181 189.493801,52.8640221 M199.396808,59.0424143 C198.461621,59.1635904 197.535144,58.8768863 196.826429,58.2385343 L191.921645,53.8310541 C191.096526,53.0897421 189.935659,52.8616461 188.891195,53.2354701 L182.684592,55.4609902 C181.713771,55.8094702 180.662972,55.6811662 179.803012,55.1093422 C178.943051,54.5383102 178.41884,53.6187981 178.363409,52.5876141 L178.011823,46.0029258 C177.953226,44.8949178 177.292814,43.9120457 176.289527,43.4384297 L170.328401,40.6220776 C169.394797,40.1817256 168.742304,39.3485416 168.538004,38.3355735 C168.334496,37.3233975 168.614023,36.3025094 169.303733,35.5350614 L173.710437,30.6302052 C174.451619,29.8049412 174.679674,28.6430771 174.305124,27.5984291 L172.080788,21.3915249 C171.73237,20.4189488 171.859859,19.3687568 172.431582,18.5086447 C173.003306,17.6485327 173.921864,17.1242287 174.953658,17.0687887 L181.537186,16.7171407 C182.645791,16.6585327 183.627698,15.9980046 184.101231,14.9953326 L186.916295,9.03236436 C187.357361,8.09859632 188.190398,7.4459883 189.203188,7.24165229 C190.215977,7.03810828 191.235894,7.31689229 192.003998,8.00751632 L196.907199,12.4149965 C197.732317,13.1563085 198.893977,13.3844045 199.937649,13.0105805 L206.144251,10.7850604 C207.116656,10.4365804 208.166663,10.5648844 209.026623,11.1359164 C209.886584,11.7077405 210.410796,12.6272525 210.466226,13.6584365 L210.817812,20.2431248 C210.877201,21.3511328 211.536821,22.3340049 212.540108,22.8076209 L218.502026,25.623181 C219.43563,26.064325 220.087331,26.8975091 220.291631,27.9104771 C220.495139,28.9226531 220.216404,29.9435412 219.526694,30.7109892 L215.119198,35.6166374 C214.378017,36.4411094 214.149961,37.6029735 214.523719,38.6476215 L216.748847,44.8553178 C217.096474,45.8271018 216.968984,46.8772939 216.398053,47.7374059 C215.82633,48.5975179 214.906188,49.121822 213.875977,49.177262 L207.293241,49.52891 C206.183844,49.587518 205.201937,50.248046 204.727613,51.25151 L201.913341,57.2136863 C201.472274,58.1474543 200.638445,58.8000623 199.627239,59.0036063 C199.550429,59.0194463 199.47441,59.0321183 199.396808,59.0424143"/>
    <path fill="#224087" d="M188.062434,54.8792662 C189.129861,54.7406662 190.21471,55.0899382 191.006571,55.8534262 L196.281154,60.9372744 C197.053218,61.6825465 198.102433,62.0080585 199.16115,61.8338185 C200.219868,61.6587865 201.108335,61.0117224 201.599289,60.0581544 L204.956777,53.5463301 C205.561759,52.3741701 206.756676,51.6304821 208.074332,51.6067221 L215.39825,51.47129 C216.472804,51.45149 217.443625,50.939858 218.069195,50.067866 C218.693973,49.195874 218.864223,48.1100419 218.537185,47.0883619 L216.308097,40.1084656 C215.906624,38.8523535 216.225744,37.4821935 217.141135,36.5325855 L222.224879,31.2570732 C222.969228,30.4840812 223.295474,29.4346812 223.120473,28.3765691 C222.945472,27.3176651 222.298522,26.4290411 221.345122,25.937209 L214.834445,22.5791289 C213.662492,21.9748329 212.919726,20.7797048 212.894387,19.4610248 L212.759771,12.1358165 C212.739974,11.0626564 212.229224,10.0892884 211.356594,9.46519238 C210.484755,8.84030435 209.399115,8.66923234 208.376823,8.99553636 L201.39974,11.2258084 C200.143057,11.6273525 198.772347,11.3081764 197.822906,10.3934164 L192.549115,5.30877621 C191.776259,4.56429618 190.723085,4.23799217 189.668327,4.41223218 C188.610401,4.58726418 187.721142,5.23432821 187.230188,6.18789625 L183.8727,12.6997205 C183.26851,13.8726726 182.072801,14.6155686 180.755145,14.6393286 L173.430435,14.7747606 C172.357464,14.7945606 171.38506,15.3061926 170.760282,16.1781846 C170.136296,17.0501767 169.965254,18.1360087 170.292292,19.1576888 L172.521379,26.137585 C172.922853,27.3936971 172.604525,28.7638571 171.688342,29.7142572 L166.604598,34.9897694 C165.861041,35.7619694 165.534002,36.8113695 165.709004,37.8694815 C165.884005,38.9283855 166.531747,39.8170096 167.484355,40.3088416 L173.995032,43.6669217 C175.167777,44.2712178 175.910542,45.4663458 175.93509,46.7850259 L176.069706,54.1102342 C176.089503,55.1833942 176.600253,56.1567622 177.472883,56.7808583 C178.344722,57.4057463 179.430362,57.5768183 180.452654,57.2505143 L187.430529,55.0202422 C187.638788,54.9537142 187.850215,54.9069862 188.062434,54.8792662 M199.068503,62.0714185 C197.984446,62.2116025 196.919393,61.8607465 196.127533,61.0972584 L190.852158,56.0126182 C189.961315,55.1540902 188.675334,54.8547142 187.497837,55.2309142 L180.519962,57.4611863 C179.42957,57.8096663 178.273454,57.6267143 177.34381,56.9606423 C176.414957,56.2953622 175.870157,55.2578422 175.848777,54.1149862 L175.713369,46.7889859 C175.691197,45.5518818 174.993568,44.4312018 173.893674,43.8633377 L167.382997,40.5060496 C166.36704,39.9817456 165.677329,39.0345136 165.491242,37.9059135 C165.304363,36.7781055 165.65199,35.6590094 166.445434,34.8353294 L171.529178,29.5606092 C172.388347,28.6696091 172.68767,27.3834011 172.310745,26.204905 L170.080865,19.2258008 C169.733239,18.1360087 169.915367,16.9788967 170.581321,16.0490886 C171.246484,15.1200726 172.281446,14.5743846 173.427268,14.5530006 L180.751977,14.4183606 C181.988072,14.3953926 183.109346,13.6984325 183.676318,12.5983445 L187.033807,6.08652024 C187.557227,5.0703842 188.505084,4.38055217 189.632693,4.19364017 C190.762678,4.00752016 191.879201,4.35600017 192.701944,5.1487922 L197.977319,10.2334324 C198.868162,11.0919604 200.153351,11.3921285 201.33164,11.0151364 L208.309515,8.78486435 C209.399115,8.43717634 210.556815,8.61933634 211.485667,9.28540837 C212.415311,9.9506884 212.960111,10.9882084 212.981491,12.1310645 L213.116108,19.4570648 C213.139072,20.6941688 213.835909,21.8148489 214.935803,22.3827129 L221.44648,25.740001 C222.462437,26.265097 223.152148,27.2123291 223.339027,28.3401371 C223.525114,29.4687372 223.177487,30.5870412 222.384043,31.4107212 L217.300299,36.6862335 C216.441922,37.5772335 216.142599,38.8626495 216.519524,40.0411456 L218.748611,47.0210419 C219.096238,48.1100419 218.91411,49.267946 218.248156,50.196962 C217.582993,51.125978 216.547239,51.6716661 215.403001,51.6930501 L208.078291,51.8276901 C206.840613,51.8506581 205.720923,52.5484101 205.15395,53.6477061 L201.796462,60.1595304 C201.27225,61.1756664 200.324393,61.8654985 199.197576,62.0524105 C199.154023,62.0587465 199.111263,62.0658745 199.068503,62.0714185"/>
    <g transform="translate(161.54 .51)">
      <mask id="ehi̇m-1-b" fill="#fff">
        <use xlink:href="#ehi̇m-1-a"/>
      </mask>
      <path fill="#224087" d="M24.8409013,56.5533166 C26.0738281,56.3933326 27.3202166,56.8202207 28.1999736,57.7294367 L33.8601924,63.5807329 C34.6908541,64.440053 35.8477622,64.843973 37.0331774,64.690325 C38.2201763,64.536677 39.2353414,63.8500129 39.8197345,62.8069489 L43.8004172,55.7066686 C44.5146754,54.4323406 45.8655894,53.6553885 47.3257801,53.6799405 L55.4653142,53.8137885 C56.6610235,53.8335885 57.7640852,53.3013645 58.4941806,52.3541325 C59.224276,51.4069004 59.4562911,50.2030604 59.133212,49.0522843 L56.9270887,41.215444 C56.5311584,39.809644 56.9373828,38.3048439 57.9873899,37.2887079 L63.8368634,31.6282837 C64.696032,30.7966836 65.1014646,29.6395716 64.9470518,28.4539475 C64.7934308,27.2675315 64.1076796,26.2521874 63.0640075,25.6668994 L55.9649782,21.6863073 C54.6900828,20.9711312 53.9140595,19.6199792 53.9378153,18.1587391 L54.0724316,10.0193548 C54.0914362,8.82343475 53.5608897,7.71938671 52.6130327,6.98916268 C51.6659675,6.25973065 50.4631314,6.02688264 49.3117663,6.35081065 L41.4763066,8.55653074 C40.0707543,8.95253076 38.5662193,8.54623474 37.5502623,7.4960427 L31.8900435,1.64553847 C31.0593818,0.786218431 29.9024736,0.381506415 28.7170585,0.535154421 C27.5308514,0.688802427 26.5148944,1.37546645 25.9305014,2.4185305 L21.9506105,9.51960278 C21.2355605,10.7939308 19.8830628,11.5708829 18.4236639,11.5463309 L10.2857135,11.4124829 C9.08921234,11.3926829 7.98615067,11.9241149 7.25605529,12.8721389 C6.52675177,13.8185789 6.29394478,15.022419 6.61781573,16.173987 L8.82314721,24.0100354 C9.2182856,25.4166274 8.81285302,26.9206355 7.76363787,27.9367715 L1.91337252,33.5979877 C1.05420388,34.4295878 0.649563165,35.5866998 0.803975962,36.7723239 C0.956805038,37.9579479 1.64334809,38.9740839 2.68622836,39.55858 L9.78525771,43.5399641 C11.0601531,44.2551402 11.8361764,45.6062922 11.8124206,47.0667403 L11.6778043,55.2069166 C11.6587996,56.4020446 12.190138,57.5068847 13.1372032,58.2363167 C14.0850602,58.9657487 15.2878963,59.1993888 16.4392615,58.8746687 L24.2739292,56.6689487 C24.4616002,56.6166766 24.6516467,56.5778686 24.8409013,56.5533166 M37.0624762,64.910501 C35.8065855,65.072861 34.5815773,64.644389 33.7002366,63.7343809 L28.0408096,57.8838767 C27.0818665,56.8922927 25.6604769,56.5081726 24.3341106,56.8819967 L16.498651,59.0877167 C15.2807696,59.4306528 14.0050823,59.1843408 13.0025869,58.4121407 C11.9992997,57.6391487 11.435495,56.4693646 11.4576671,55.2029566 L11.5914915,47.0635723 C11.6136636,45.6839082 10.8804008,44.4079962 9.67835655,43.7332121 L2.57774347,39.751828 C1.47309808,39.132484 0.746170146,38.0569479 0.583838744,36.8008359 C0.420715482,35.5447238 0.84911201,34.3194998 1.75975158,33.4387957 L7.60922507,27.7775795 C8.59984255,26.8184675 8.98389489,25.3984114 8.61013674,24.0702274 L6.40480525,16.233387 C6.06192966,15.014499 6.30819827,13.7401709 7.08105412,12.7367069 C7.85390996,11.7332429 9.02348792,11.1701308 10.288881,11.1907228 L18.4276232,11.3253629 C19.8062523,11.3475389 21.0827314,10.6149388 21.7566047,9.41109877 L25.7380793,2.31002649 C26.3573142,1.20597845 27.4318689,0.478922419 28.6877596,0.315770413 C29.9436504,0.153410406 31.1686586,0.581882423 32.0499993,1.49189046 L37.7094263,7.34239469 C38.6683693,8.33397873 40.0889671,8.71730675 41.4169171,8.34348273 L49.2515849,6.13776264 C50.4702582,5.79482663 51.7451536,6.04113864 52.747649,6.81413067 C53.7509362,7.5871227 54.3147409,8.75690675 54.2933606,10.0233148 L54.1587444,18.1626991 C54.1365723,19.5423632 54.8698351,20.8182752 56.0726712,21.4922673 L63.1724924,25.4744434 C64.2771378,26.0937874 65.0040657,27.1693235 65.1663971,28.4246435 C65.3295204,29.6807556 64.9011239,30.9067716 63.9904843,31.7866837 L58.1418027,37.4478999 C57.1503933,38.4070119 56.766341,39.82786 57.1400991,41.156044 L59.3454306,48.9928843 C59.6890981,50.2117724 59.4420376,51.4861004 58.6691817,52.4895645 C57.8963259,53.4922365 56.7283317,54.0561405 55.4613549,54.0347565 L47.3234046,53.9009085 C45.9439836,53.8779405 44.6682963,54.6113326 43.9936312,55.8143806 L40.0129485,62.9154529 C39.3937135,64.0202929 38.318367,64.747349 37.0624762,64.910501" mask="url(#ehi̇m-1-b)"/>
    </g>
    <polygon fill="#224087" points="7.651 21.489 7.651 23.249 2.101 23.249 2.101 26.301 7.993 26.301 7.993 28.06 0 28.06 0 16.896 7.916 16.896 7.916 18.655 2.101 18.655 2.101 21.489"/>
    <mask id="ehi̇m-1-d" fill="#fff">
      <use xlink:href="#ehi̇m-1-c"/>
    </mask>
    <polygon fill="#224087" points="9.706 28.06 11.659 28.06 11.659 16.257 9.706 16.257" mask="url(#ehi̇m-1-d)"/>
    <path fill="#224087" d="M19.5136598,23.3110161 C19.5136598,22.7344401 19.0234982,21.5749521 17.4191888,21.5749521 C15.8164632,21.5749521 15.3263015,22.7344401 15.3263015,23.3110161 L19.5136598,23.3110161 Z M19.8945447,25.7551282 L21.0783762,26.9312483 C20.1210168,27.8729363 18.9063028,28.2150803 17.4191888,28.2150803 C14.6801434,28.2150803 13.2167852,26.4402083 13.2167852,24.0816322 C13.2167852,21.7388961 14.6801434,19.947392 17.4191888,19.947392 C20.1669448,19.947392 21.7712541,21.6684081 21.6223843,24.8443282 L15.3263015,24.8443282 C15.3263015,25.4129842 15.8323004,26.5883123 17.4191888,26.5883123 C18.610147,26.5883123 19.3655819,26.1994402 19.8945447,25.7551282 L19.8945447,25.7551282 Z" mask="url(#ehi̇m-1-d)"/>
    <polygon fill="#224087" points="28.55 20.104 31.135 20.104 27.421 23.474 31.135 28.06 28.752 28.06 26.052 24.72 25.149 25.53 25.149 28.06 23.195 28.06 23.195 16.258 25.149 16.258 25.149 23.194" mask="url(#ehi̇m-1-d)"/>
    <path fill="#224087" d="M31.8354843 20.1035744L33.3685262 20.1035744 33.3685262 17.7758863 35.3220461 17.7758863 35.3220461 20.1035744 37.5946857 20.1035744 37.5946857 21.7303425 35.3220461 21.7303425 35.3220461 24.5490706C35.3220461 25.7632066 35.4392414 26.5884707 36.4670763 26.5884707 36.8709252 26.5884707 37.1979636 26.5187747 37.5321287 26.3627506L37.9684438 27.8651747C37.3151589 28.1534627 36.6919647 28.2152387 36.1550833 28.2152387 33.9133262 28.2152387 33.3685262 26.8997267 33.3685262 24.5490706L33.3685262 21.7303425 31.8354843 21.7303425 31.8354843 20.1035744zM44.3358733 21.8317977C44.0555547 21.6607257 43.6968419 21.5743977 43.2541918 21.5743977 41.8834813 21.5743977 41.3228441 22.4313417 41.3228441 23.8015017L41.3228441 28.0600859 39.3701161 28.0600859 39.3701161 20.1036536 41.3228441 20.1036536 41.3228441 21.3185816C41.6578011 20.3214536 42.7394825 19.9476296 43.5646011 19.9476296 44.2115512 19.9476296 44.7634779 20.0569256 45.2385942 20.2668056L44.3358733 21.8317977zM50.0721899 21.5750313C48.3673142 21.5750313 47.636427 22.7741193 47.636427 24.0817114 47.636427 25.3893034 48.3673142 26.5883915 50.0721899 26.5883915 51.7762737 26.5883915 52.5079528 25.3893034 52.5079528 24.0817114 52.5079528 22.7741193 51.7762737 21.5750313 50.0721899 21.5750313M50.0721899 28.2151595C47.3632351 28.2151595 45.6346037 26.4323675 45.6346037 24.0817114 45.6346037 21.7381833 47.3632351 19.9474712 50.0721899 19.9474712 52.7724342 19.9474712 54.5089843 21.7152153 54.5089843 24.0817114 54.5089843 26.4482075 52.7724342 28.2151595 50.0721899 28.2151595M58.0186684 28.0595315L56.0651485 28.0595315 56.0651485 20.1030992 58.0186684 20.1030992 58.0186684 21.3180272C58.3544172 20.3216912 59.4353068 19.9478672 60.2604254 19.9478672 62.4633813 19.9478672 63.8261732 21.2792192 63.8261732 23.8017393L63.8261732 28.0595315 61.8718615 28.0595315 61.8718615 23.8017393C61.8718615 22.4315793 61.2257034 21.5746353 59.9492242 21.5746353 58.6648265 21.5746353 58.0186684 22.4315793 58.0186684 23.8017393L58.0186684 28.0595315z" mask="url(#ehi̇m-1-d)"/>
    <polygon fill="#224087" points="77.572 16.896 79.673 16.896 79.673 28.06 77.572 28.06 77.572 23.249 72.256 23.249 72.256 28.06 70.154 28.06 70.154 16.896 72.256 16.896 72.256 21.489 77.572 21.489" mask="url(#ehi̇m-1-d)"/>
    <path fill="#224087" d="M87.3947923,16.5847975 C88.0251133,16.5847975 88.5382389,17.0988055 88.5382389,17.7292375 C88.5382389,18.3596695 88.0251133,18.8736775 87.3947923,18.8736775 C86.7636795,18.8736775 86.2505539,18.3596695 86.2505539,17.7292375 C86.2505539,17.0988055 86.7636795,16.5847975 87.3947923,16.5847975 M85.6661608,21.5751897 C83.9620771,21.5751897 83.230398,22.7742777 83.230398,24.0818698 C83.230398,25.3894618 83.9620771,26.5877579 85.6661608,26.5877579 C87.3718284,26.5877579 88.1035075,25.3894618 88.1035075,24.0818698 C88.1035075,22.7742777 87.3718284,21.5751897 85.6661608,21.5751897 M83.9391131,16.5847975 C84.5694341,16.5847975 85.0825597,17.0988055 85.0825597,17.7292375 C85.0825597,18.3596695 84.5694341,18.8736775 83.9391131,18.8736775 C83.3080003,18.8736775 82.7940828,18.3596695 82.7940828,17.7292375 C82.7940828,17.0988055 83.3080003,16.5847975 83.9391131,16.5847975 M85.6661608,28.2153179 C82.9572061,28.2153179 81.2301583,26.4325259 81.2301583,24.0818698 C81.2301583,21.7383417 82.9572061,19.9476296 85.6661608,19.9476296 C88.3679889,19.9476296 90.1029552,21.7153737 90.1029552,24.0818698 C90.1029552,26.4483659 88.3679889,28.2153179 85.6661608,28.2153179" mask="url(#ehi̇m-1-d)"/>
    <polygon fill="#224087" points="97.016 20.104 99.6 20.104 95.886 23.474 99.6 28.06 97.217 28.06 94.517 24.72 93.614 25.53 93.614 28.06 91.66 28.06 91.66 16.258 93.614 16.258 93.614 23.194" mask="url(#ehi̇m-1-d)"/>
    <path fill="#224087" d="M106.573495 20.1062672L108.527807 20.1062672 108.527807 28.0595315 106.573495 28.0595315 106.573495 26.8461875C106.223493 27.8425235 105.172694 28.2155555 104.33253 28.2155555 102.129574 28.2155555 100.766782 26.8849955 100.766782 24.3632674L100.766782 20.1062672 102.721094 20.1062672 102.721094 24.3632674C102.721094 25.7326354 103.36646 26.5887875 104.642939 26.5887875 105.928129 26.5887875 106.573495 25.7326354 106.573495 24.3632674L106.573495 20.1062672zM110.395093 20.1035744L112.348613 20.1035744 112.348613 20.8353824C112.621805 20.3601824 113.40733 19.9475504 114.193648 19.9475504 115.447163 19.9475504 116.326128 20.3839424 116.801245 21.0452624 117.236768 20.4845264 118.156118 19.9475504 119.245718 19.9475504 121.151726 19.9475504 122.452753 20.9676464 122.452753 23.4196785L122.452753 28.0600067 120.498441 28.0600067 120.498441 23.4196785C120.498441 22.3219665 120.031243 21.5751105 118.949562 21.5751105 117.867881 21.5751105 117.400683 22.3219665 117.400683 23.4196785L117.400683 28.0600067 115.447163 28.0600067 115.447163 23.4196785C115.447163 22.3219665 114.979965 21.5751105 113.898284 21.5751105 112.815811 21.5751105 112.348613 22.3219665 112.348613 23.4196785L112.348613 28.0600067 110.395093 28.0600067 110.395093 20.1035744zM126.134112 24.8524858C126.134112 25.4290618 126.624274 26.5885499 128.227791 26.5885499 129.831309 26.5885499 130.321471 25.4290618 130.321471 24.8524858L126.134112 24.8524858zM125.753227 22.4083737L124.569396 21.2322536C125.525963 20.2905656 126.741469 19.9476296 128.227791 19.9476296 130.967629 19.9476296 132.430987 21.7232937 132.430987 24.0818698 132.430987 26.4325259 130.967629 28.2153179 128.227791 28.2153179 125.495081 28.2153179 123.861473 26.4950939 124.024596 23.3183817L130.321471 23.3183817C130.321471 22.7505177 129.815472 21.5751897 128.227791 21.5751897 127.036833 21.5751897 126.28219 21.9640617 125.753227 22.4083737L125.753227 22.4083737zM133.279466 20.1035744L134.813299 20.1035744 134.813299 17.7758863 136.766027 17.7758863 136.766027 20.1035744 139.038667 20.1035744 139.038667 21.7303425 136.766027 21.7303425 136.766027 24.5490706C136.766027 25.7632066 136.883223 26.5884707 137.910266 26.5884707 138.314906 26.5884707 138.641945 26.5187747 138.976902 26.3627506L139.412425 27.8651747C138.75914 28.1534627 138.136738 28.2152387 137.599065 28.2152387 135.357307 28.2152387 134.813299 26.8997267 134.813299 24.5490706L134.813299 21.7303425 133.279466 21.7303425 133.279466 20.1035744zM140.985218 28.0598483L142.938738 28.0598483 142.938738 20.103416 140.985218 20.103416 140.985218 28.0598483zM141.957623 16.5845599C142.588736 16.5845599 143.101862 17.0985679 143.101862 17.7289999 143.101862 18.3602239 142.588736 18.8734399 141.957623 18.8734399 141.327302 18.8734399 140.813385 18.3602239 140.813385 17.7289999 140.813385 17.0985679 141.327302 16.5845599 141.957623 16.5845599L141.957623 16.5845599zM146.92433 28.0595315L144.970019 28.0595315 144.970019 20.1030992 146.92433 20.1030992 146.92433 21.3180272C147.259287 20.3216912 148.340969 19.9478672 149.165296 19.9478672 151.368252 19.9478672 152.731044 21.2792192 152.731044 23.8017393L152.731044 28.0595315 150.776732 28.0595315 150.776732 23.8017393C150.776732 22.4315793 150.131366 21.5746353 148.854886 21.5746353 147.569697 21.5746353 146.92433 22.4315793 146.92433 23.8017393L146.92433 28.0595315zM36.8460608 46.103985L38.9476585 46.103985 38.9476585 34.9399526 36.8460608 34.9399526 36.8460608 46.103985zM37.8976515 31.8566965C38.5279725 31.8566965 39.0410981 32.3707045 39.0410981 33.0011365 39.0410981 33.6315685 38.5279725 34.1455766 37.8976515 34.1455766 37.2665387 34.1455766 36.7526212 33.6315685 36.7526212 33.0011365 36.7526212 32.3707045 37.2665387 31.8566965 37.8976515 31.8566965L37.8976515 31.8566965zM42.5441305 46.1030346L40.5906107 46.1030346 40.5906107 38.1473943 42.5441305 38.1473943 42.5441305 39.3615304C42.8790875 38.3651943 43.960769 37.9913703 44.7850957 37.9913703 46.9880516 37.9913703 48.3508435 39.3219304 48.3508435 41.8452425L48.3508435 46.1030346 46.3965318 46.1030346 46.3965318 41.8452425C46.3965318 40.4750824 45.7511655 39.6181384 44.4746864 39.6181384 43.1894968 39.6181384 42.5441305 40.4750824 42.5441305 41.8452425L42.5441305 46.1030346z" mask="url(#ehi̇m-1-d)"/>
    <polygon fill="#224087" points="55.255 38.147 57.839 38.147 54.126 41.518 57.839 46.103 55.458 46.103 52.757 42.764 51.854 43.573 51.854 46.103 49.899 46.103 49.899 34.301 51.854 34.301 51.854 41.237" mask="url(#ehi̇m-1-d)"/>
    <path fill="#224087" d="M58.8589907 46.103193L60.8125106 46.103193 60.8125106 38.1467607 58.8589907 38.1467607 58.8589907 46.103193zM59.8321873 34.6286966C60.4633001 34.6286966 60.9764257 35.1419126 60.9764257 35.7723446 60.9764257 36.4027766 60.4633001 36.9167847 59.8321873 36.9167847 59.2018663 36.9167847 58.6879488 36.4027766 58.6879488 35.7723446 58.6879488 35.1419126 59.2018663 34.6286966 59.8321873 34.6286966L59.8321873 34.6286966zM64.3001809 48.7659763C64.8299356 48.9520963 66.2774566 49.3108724 66.3701043 48.4079923 66.4564171 47.7300403 65.4602566 47.8084483 64.4403402 47.9716003L65.0009775 46.2204882C63.8179379 46.1032722 62.7663471 45.7682562 62.0584239 45.3247362L62.8835425 43.9157681C63.7165797 44.3513682 64.822017 44.6317362 65.8102589 44.6317362 66.9307415 44.6317362 67.3124183 44.3276082 67.3124183 43.7676641 67.3124183 43.2069281 66.5886578 43.0825841 65.5449856 42.8956721 63.2810565 42.4830401 62.3617064 41.7282641 62.3617064 40.342264 62.3617064 39.0029919 63.2414634 37.9916079 65.6384252 37.9916079 66.9236148 37.9916079 67.989459 38.2173279 68.8929718 38.7780639L68.0678532 40.18624C67.296581 39.789448 66.4176159 39.618376 65.6384252 39.618376 64.7277856 39.618376 64.3160181 39.844096 64.3160181 40.342264 64.3160181 40.840432 64.9225833 41.066152 65.8965717 41.253064 68.0282601 41.6656961 69.2738567 42.1488161 69.2738567 43.8460721 69.2738567 45.4419522 68.0678532 46.1658402 66.1760984 46.2513762L65.934581 46.9752643C66.7985008 46.9752643 67.6624206 47.3562163 67.5610625 48.4626403 67.4058578 50.1591044 65.3818624 50.2375124 63.94226 49.6767764L64.3001809 48.7659763zM76.6683292 42.1248977C76.6683292 40.8173056 76.0071257 39.6261376 74.3568884 39.6261376 72.7066511 39.6261376 72.0454476 40.8173056 72.0454476 42.1248977 72.0454476 43.4324897 72.7066511 44.6244498 74.3568884 44.6244498 76.0071257 44.6244498 76.6683292 43.4324897 76.6683292 42.1248977L76.6683292 42.1248977zM78.6226409 38.1474735L78.6226409 46.1031138 76.6683292 46.1031138 76.6683292 44.7717618C76.170249 45.7760178 74.9333629 46.2591378 73.9522477 46.2591378 71.492729 46.2591378 70.045208 44.4763458 70.045208 42.1248977 70.045208 39.7821616 71.492729 37.9914495 73.9522477 37.9914495 74.9333629 37.9914495 76.170249 38.4737775 76.6683292 39.4780336L76.6683292 38.1474735 78.6226409 38.1474735zM83.1919135 38.1470775L85.4645532 38.1470775 85.4645532 39.7746376 83.1919135 39.7746376 83.1919135 46.1027178 81.2376018 46.1027178 81.2376018 39.7746376 79.7045599 39.7746376 79.7045599 38.1470775 81.2376018 38.1470775C81.2613576 35.5548614 81.8378321 34.1458934 84.1651101 34.1458934 84.880952 34.1458934 85.4495078 34.2385574 86.0093532 34.4183414L85.4495078 35.9278934C85.1066322 35.8344374 84.6623985 35.7726614 84.3203147 35.7726614 83.1998321 35.7726614 83.1919135 36.7143495 83.1919135 38.1470775" mask="url(#ehi̇m-1-d)"/>
    <polygon fill="#224087" points="101.099 42.834 104.369 34.94 107.264 34.94 107.264 46.103 105.163 46.103 105.163 38.209 101.909 46.103 100.29 46.103 97.036 38.209 97.036 46.103 94.935 46.103 94.935 34.94 97.83 34.94" mask="url(#ehi̇m-1-d)"/>
    <path fill="#224087" d="M110.627108 42.8959889C110.627108 43.4717729 111.11727 44.632053 112.721579 44.632053 114.324305 44.632053 114.814467 43.4717729 114.814467 42.8959889L110.627108 42.8959889zM110.246223 40.4510848L109.062392 39.2757568C110.019751 38.3340687 111.234465 37.9911327 112.721579 37.9911327 115.460625 37.9911327 116.923983 39.7667968 116.923983 42.1245809 116.923983 44.476029 115.460625 46.258821 112.721579 46.258821 109.988869 46.258821 108.354469 44.538597 108.517592 41.3618848L114.814467 41.3618848C114.814467 40.7940208 114.308468 39.6186928 112.721579 39.6186928 111.530621 39.6186928 110.775186 40.0075648 110.246223 40.4510848L110.246223 40.4510848zM123.127497 39.8753008C122.847179 39.7034368 122.489258 39.6186928 122.045816 39.6186928 120.675105 39.6186928 120.11526 40.4740528 120.11526 41.8450049L120.11526 46.103589 118.16174 46.103589 118.16174 38.1471567 120.11526 38.1471567 120.11526 39.3620848C120.450217 38.3649567 121.531898 37.9919247 122.357017 37.9919247 123.003175 37.9919247 123.555894 38.1004287 124.03101 38.3103087L123.127497 39.8753008z" mask="url(#ehi̇m-1-d)"/>
    <polygon fill="#224087" points="130.235 38.147 132.82 38.147 129.106 41.518 132.82 46.103 130.437 46.103 127.736 42.764 126.833 43.573 126.833 46.103 124.88 46.103 124.88 34.301 126.833 34.301 126.833 41.237" mask="url(#ehi̇m-1-d)"/>
    <path fill="#224087" d="M135.239716,42.8959889 C135.239716,43.4717729 135.729878,44.632053 137.334187,44.632053 C138.936913,44.632053 139.427074,43.4717729 139.427074,42.8959889 L135.239716,42.8959889 Z M134.858831,40.4510848 L133.675,39.2757568 C134.632359,38.3340687 135.847073,37.9911327 137.334187,37.9911327 C140.073233,37.9911327 141.536591,39.7667968 141.536591,42.1245809 C141.536591,44.476029 140.073233,46.258821 137.334187,46.258821 C134.601477,46.258821 132.967077,44.538597 133.1302,41.3618848 L139.427074,41.3618848 C139.427074,40.7940208 138.921076,39.6186928 137.334187,39.6186928 C136.143229,39.6186928 135.387794,40.0075648 134.858831,40.4510848 L134.858831,40.4510848 Z" mask="url(#ehi̇m-1-d)"/>
    <polygon fill="#224087" points="142.377 45.13 146.619 39.774 142.626 39.774 142.626 38.147 149.554 38.147 149.554 39.12 145.313 44.476 149.554 44.476 149.554 46.103 142.377 46.103" mask="url(#ehi̇m-1-d)"/>
    <path fill="#224087" d="M151.118657,46.103193 L153.072969,46.103193 L153.072969,38.1467607 L151.118657,38.1467607 L151.118657,46.103193 Z M152.092646,34.6286966 C152.722175,34.6286966 153.236092,35.1419126 153.236092,35.7723446 C153.236092,36.4027766 152.722175,36.9167847 152.092646,36.9167847 C151.462325,36.9167847 150.947615,36.4027766 150.947615,35.7723446 C150.947615,35.1419126 151.462325,34.6286966 152.092646,34.6286966 L152.092646,34.6286966 Z" mask="url(#ehi̇m-1-d)"/>
    <polygon fill="#224087" points="86.547 46.103 88.501 46.103 88.501 38.147 86.547 38.147" mask="url(#ehi̇m-1-d)"/>
  </g>
</svg>
