<svg width="1582" height="533" viewBox="0 0 1582 533" fill="none" xmlns="http://www.w3.org/2000/svg">
<g opacity="0.1" clip-path="url(#clip0_1_1589)">
<path d="M1578.95 379.326H2.36481V530.835H1578.95V379.326Z" fill="white" stroke="#3D3C45" stroke-width="4.72975" stroke-miterlimit="10"/>
<path d="M246.893 214.416L245.789 209.213L250.676 182.253L255.564 209.213L254.46 214.416L259.821 223.56C260.294 224.348 259.663 225.452 258.717 225.452H240.429L246.893 214.416Z" fill="white" stroke="#3D3C45" stroke-width="4.72975" stroke-miterlimit="10"/>
<path d="M381.218 214.416L380.114 209.213L385.001 182.253L389.889 209.213L388.785 214.416L394.146 223.56C394.619 224.348 393.988 225.452 393.042 225.452H374.754L381.218 214.416Z" fill="white" stroke="#3D3C45" stroke-width="4.72975" stroke-miterlimit="10"/>
<path d="M442.231 225.451H192.343V530.835H442.231V225.451Z" fill="white" stroke="#3D3C45" stroke-width="4.72975" stroke-miterlimit="10"/>
<path d="M242.005 240.587C242.005 243.74 239.482 246.262 236.329 246.262C233.176 246.262 230.653 243.74 230.653 240.587C230.653 237.434 233.176 234.911 236.329 234.911C239.324 234.911 242.005 237.434 242.005 240.587Z" fill="white" stroke="#3D3C45" stroke-width="4.72975" stroke-miterlimit="10"/>
<path d="M296.081 240.587C296.081 243.74 293.559 246.262 290.406 246.262C287.252 246.262 284.73 243.74 284.73 240.587C284.73 237.434 287.252 234.911 290.406 234.911C293.559 234.911 296.081 237.434 296.081 240.587Z" fill="white" stroke="#3D3C45" stroke-width="4.72975" stroke-miterlimit="10"/>
<path d="M350.159 240.587C350.159 243.74 347.636 246.262 344.483 246.262C341.33 246.262 338.807 243.74 338.807 240.587C338.807 237.434 341.33 234.911 344.483 234.911C347.478 234.911 350.159 237.434 350.159 240.587Z" fill="white" stroke="#3D3C45" stroke-width="4.72975" stroke-miterlimit="10"/>
<path d="M404.235 240.587C404.235 243.74 401.712 246.262 398.559 246.262C395.406 246.262 392.883 243.74 392.883 240.587C392.883 237.434 395.406 234.911 398.559 234.911C401.555 234.911 404.235 237.434 404.235 240.587Z" fill="white" stroke="#3D3C45" stroke-width="4.72975" stroke-miterlimit="10"/>
<path d="M236.172 388.785C228.132 388.785 221.668 395.249 221.668 403.29V455.633H250.677V403.29C250.677 395.249 244.213 388.785 236.172 388.785Z" fill="white" stroke="#3D3C45" stroke-width="4.72975" stroke-miterlimit="10"/>
<path d="M236.172 397.299C232.546 397.299 229.708 400.137 229.708 403.763V408.335H242.636V403.605C242.636 400.137 239.799 397.299 236.172 397.299Z" fill="white" stroke="#3D3C45" stroke-width="4.72975" stroke-miterlimit="10"/>
<path d="M243.109 424.889H229.235V455.633H243.109V424.889Z" fill="white" stroke="#3D3C45" stroke-width="4.72975" stroke-miterlimit="10"/>
<path d="M290.248 388.786C282.208 388.786 275.744 395.25 275.744 403.29V455.633H304.753V403.29C304.753 395.25 298.289 388.786 290.248 388.786Z" fill="white" stroke="#3D3C45" stroke-width="4.72975" stroke-miterlimit="10"/>
<path d="M290.249 397.299C286.622 397.299 283.785 400.137 283.785 403.763V408.335H296.713V403.605C296.713 400.137 293.875 397.299 290.249 397.299Z" fill="white" stroke="#3D3C45" stroke-width="4.72975" stroke-miterlimit="10"/>
<path d="M297.185 424.889H283.311V455.633H297.185V424.889Z" fill="white" stroke="#3D3C45" stroke-width="4.72975" stroke-miterlimit="10"/>
<path d="M344.326 388.786C336.285 388.786 329.821 395.25 329.821 403.29V455.633H358.83V403.29C358.83 395.25 352.366 388.786 344.326 388.786Z" fill="white" stroke="#3D3C45" stroke-width="4.72975" stroke-miterlimit="10"/>
<path d="M344.326 397.299C340.7 397.299 337.862 400.137 337.862 403.763V408.335H350.79V403.605C350.79 400.137 347.952 397.299 344.326 397.299Z" fill="white" stroke="#3D3C45" stroke-width="4.72975" stroke-miterlimit="10"/>
<path d="M351.262 424.889H337.388V455.633H351.262V424.889Z" fill="white" stroke="#3D3C45" stroke-width="4.72975" stroke-miterlimit="10"/>
<path d="M398.403 388.786C390.362 388.786 383.898 395.25 383.898 403.29V455.633H412.907V403.29C412.907 395.25 406.443 388.786 398.403 388.786Z" fill="white" stroke="#3D3C45" stroke-width="4.72975" stroke-miterlimit="10"/>
<path d="M398.402 397.299C394.776 397.299 391.938 400.137 391.938 403.763V408.335H404.866V403.605C404.866 400.137 402.029 397.299 398.402 397.299Z" fill="white" stroke="#3D3C45" stroke-width="4.72975" stroke-miterlimit="10"/>
<path d="M405.339 424.889H391.465V455.633H405.339V424.889Z" fill="white" stroke="#3D3C45" stroke-width="4.72975" stroke-miterlimit="10"/>
<path d="M231.758 474.393H222.14V493.312H231.758V474.393Z" fill="white" stroke="#3D3C45" stroke-width="4.72975" stroke-miterlimit="10"/>
<path d="M250.361 474.393H240.744V493.312H250.361V474.393Z" fill="white" stroke="#3D3C45" stroke-width="4.72975" stroke-miterlimit="10"/>
<path d="M285.834 474.393H276.216V493.312H285.834V474.393Z" fill="white" stroke="#3D3C45" stroke-width="4.72975" stroke-miterlimit="10"/>
<path d="M304.437 474.393H294.82V493.312H304.437V474.393Z" fill="white" stroke="#3D3C45" stroke-width="4.72975" stroke-miterlimit="10"/>
<path d="M339.911 474.393H330.294V493.312H339.911V474.393Z" fill="white" stroke="#3D3C45" stroke-width="4.72975" stroke-miterlimit="10"/>
<path d="M358.515 474.393H348.897V493.312H358.515V474.393Z" fill="white" stroke="#3D3C45" stroke-width="4.72975" stroke-miterlimit="10"/>
<path d="M393.988 474.393H384.371V493.312H393.988V474.393Z" fill="white" stroke="#3D3C45" stroke-width="4.72975" stroke-miterlimit="10"/>
<path d="M412.591 474.393H402.974V493.312H412.591V474.393Z" fill="white" stroke="#3D3C45" stroke-width="4.72975" stroke-miterlimit="10"/>
<path d="M200.383 163.965H70.946V198.177H200.383V163.965Z" fill="white" stroke="#3D3C45" stroke-width="4.72975" stroke-miterlimit="10"/>
<path d="M200.383 198.177H70.946V284.574H200.383V198.177Z" fill="white" stroke="#3D3C45" stroke-width="4.72975" stroke-miterlimit="10"/>
<path d="M135.586 205.902C127.545 205.902 121.081 212.366 121.081 220.407V272.749H150.09V220.407C150.09 212.366 143.626 205.902 135.586 205.902Z" fill="white" stroke="#3D3C45" stroke-width="4.72975" stroke-miterlimit="10"/>
<path d="M135.586 214.416C131.96 214.416 129.122 217.254 129.122 220.88V225.452H142.05V220.88C142.05 217.254 139.054 214.416 135.586 214.416Z" fill="white" stroke="#3D3C45" stroke-width="4.72975" stroke-miterlimit="10"/>
<path d="M86.2388 152.93L87.3424 147.727L82.455 120.767L77.5676 147.727L78.8289 152.93L73.4685 162.074C72.9955 162.862 73.6262 163.966 74.5721 163.966H92.8605L86.2388 152.93Z" fill="white" stroke="#3D3C45" stroke-width="4.72975" stroke-miterlimit="10"/>
<path d="M184.775 152.93L183.672 147.727L188.559 120.767L193.447 147.727L192.343 152.93L197.703 162.074C198.176 162.862 197.546 163.966 196.6 163.966H178.311L184.775 152.93Z" fill="white" stroke="#3D3C45" stroke-width="4.72975" stroke-miterlimit="10"/>
<path d="M102.006 163.966V154.033" stroke="#3D3C45" stroke-width="4.72975" stroke-miterlimit="10"/>
<path d="M115.406 163.966V154.033" stroke="#3D3C45" stroke-width="4.72975" stroke-miterlimit="10"/>
<path d="M128.807 163.966V154.033" stroke="#3D3C45" stroke-width="4.72975" stroke-miterlimit="10"/>
<path d="M142.208 163.966V154.033" stroke="#3D3C45" stroke-width="4.72975" stroke-miterlimit="10"/>
<path d="M155.609 163.966V154.033" stroke="#3D3C45" stroke-width="4.72975" stroke-miterlimit="10"/>
<path d="M169.01 163.966V154.033" stroke="#3D3C45" stroke-width="4.72975" stroke-miterlimit="10"/>
<path d="M92.0717 171.533C92.0717 171.533 87.9725 174.055 87.9725 178.943V190.137H96.1708V178.943C96.1708 173.898 92.0717 171.533 92.0717 171.533Z" fill="white" stroke="#3D3C45" stroke-width="4.72975" stroke-miterlimit="10"/>
<path d="M106.577 171.533C106.577 171.533 102.478 174.055 102.478 178.943V190.137H110.834V178.943C110.676 173.898 106.577 171.533 106.577 171.533Z" fill="white" stroke="#3D3C45" stroke-width="4.72975" stroke-miterlimit="10"/>
<path d="M121.081 171.533C121.081 171.533 116.982 174.055 116.982 178.943V190.137H125.338V178.943C125.18 173.898 121.081 171.533 121.081 171.533Z" fill="white" stroke="#3D3C45" stroke-width="4.72975" stroke-miterlimit="10"/>
<path d="M135.586 171.533C135.586 171.533 131.487 174.055 131.487 178.943V190.137H139.842V178.943C139.685 173.898 135.586 171.533 135.586 171.533Z" fill="white" stroke="#3D3C45" stroke-width="4.72975" stroke-miterlimit="10"/>
<path d="M150.09 171.533C150.09 171.533 145.991 174.055 145.991 178.943V190.137H154.347V178.943C154.189 173.898 150.09 171.533 150.09 171.533Z" fill="white" stroke="#3D3C45" stroke-width="4.72975" stroke-miterlimit="10"/>
<path d="M164.595 171.533C164.595 171.533 160.496 174.055 160.496 178.943V190.137H168.851V178.943C168.694 173.898 164.595 171.533 164.595 171.533Z" fill="white" stroke="#3D3C45" stroke-width="4.72975" stroke-miterlimit="10"/>
<path d="M179.1 171.533C179.1 171.533 175 174.055 175 178.943V190.137H183.356V178.943C183.199 173.898 179.1 171.533 179.1 171.533Z" fill="white" stroke="#3D3C45" stroke-width="4.72975" stroke-miterlimit="10"/>
<path d="M83.5591 234.912C79.46 234.912 76.1492 238.223 76.1492 242.322V272.75H90.969V242.164C90.969 238.223 87.6582 234.912 83.5591 234.912Z" fill="white" stroke="#3D3C45" stroke-width="4.72975" stroke-miterlimit="10"/>
<path d="M106.42 234.912C102.32 234.912 99.0096 238.222 99.0096 242.322V272.75H113.83V242.164C113.83 238.222 110.519 234.912 106.42 234.912Z" fill="white" stroke="#3D3C45" stroke-width="4.72975" stroke-miterlimit="10"/>
<path d="M100.743 212.367C100.743 215.52 98.2208 218.042 95.0677 218.042C91.9145 218.042 89.392 215.52 89.392 212.367C89.392 209.213 91.9145 206.691 95.0677 206.691C98.2208 206.691 100.743 209.213 100.743 212.367Z" fill="white" stroke="#3D3C45" stroke-width="4.72975" stroke-miterlimit="10"/>
<path d="M164.595 234.912C160.496 234.912 157.185 238.222 157.185 242.322V272.75H172.005V242.164C172.005 238.222 168.694 234.912 164.595 234.912Z" fill="white" stroke="#3D3C45" stroke-width="4.72975" stroke-miterlimit="10"/>
<path d="M187.456 234.912C183.357 234.912 180.046 238.222 180.046 242.321V272.75H194.866V242.164C194.866 238.222 191.555 234.912 187.456 234.912Z" fill="white" stroke="#3D3C45" stroke-width="4.72975" stroke-miterlimit="10"/>
<path d="M181.779 212.366C181.779 215.52 179.257 218.042 176.104 218.042C172.951 218.042 170.428 215.52 170.428 212.366C170.428 209.213 172.951 206.691 176.104 206.691C179.257 206.691 181.779 209.213 181.779 212.366Z" fill="white" stroke="#3D3C45" stroke-width="4.72975" stroke-miterlimit="10"/>
<path d="M200.383 272.749H70.946V284.416H200.383V272.749Z" fill="white" stroke="#3D3C45" stroke-width="4.72975" stroke-miterlimit="10"/>
<path d="M200.383 284.573H70.946V370.97H200.383V284.573Z" fill="white" stroke="#3D3C45" stroke-width="4.72975" stroke-miterlimit="10"/>
<path d="M135.586 292.299C127.545 292.299 121.081 298.763 121.081 306.803V359.146H150.09V306.803C150.09 298.92 143.626 292.299 135.586 292.299Z" fill="white" stroke="#3D3C45" stroke-width="4.72975" stroke-miterlimit="10"/>
<path d="M135.586 300.813C131.96 300.813 129.122 303.651 129.122 307.277V311.849H142.05V307.277C142.05 303.651 139.054 300.813 135.586 300.813Z" fill="white" stroke="#3D3C45" stroke-width="4.72975" stroke-miterlimit="10"/>
<path d="M176.104 321.309C172.005 321.309 168.694 324.62 168.694 328.719V359.305H183.514V328.719C183.514 324.62 180.203 321.309 176.104 321.309Z" fill="white" stroke="#3D3C45" stroke-width="4.72975" stroke-miterlimit="10"/>
<path d="M95.0678 321.309C90.9687 321.309 87.6578 324.62 87.6578 328.719V359.305H102.478V328.719C102.478 324.62 99.1669 321.309 95.0678 321.309Z" fill="white" stroke="#3D3C45" stroke-width="4.72975" stroke-miterlimit="10"/>
<path d="M100.744 298.763C100.744 301.916 98.2213 304.438 95.0681 304.438C91.9149 304.438 89.3924 301.916 89.3924 298.763C89.3924 295.61 91.9149 293.087 95.0681 293.087C98.2213 293.087 100.744 295.61 100.744 298.763Z" fill="white" stroke="#3D3C45" stroke-width="4.72975" stroke-miterlimit="10"/>
<path d="M181.78 298.763C181.78 301.916 179.257 304.438 176.104 304.438C172.951 304.438 170.429 301.916 170.429 298.763C170.429 295.61 172.951 293.087 176.104 293.087C179.257 293.087 181.78 295.61 181.78 298.763Z" fill="white" stroke="#3D3C45" stroke-width="4.72975" stroke-miterlimit="10"/>
<path d="M200.383 359.304H70.946V370.97H200.383V359.304Z" fill="white" stroke="#3D3C45" stroke-width="4.72975" stroke-miterlimit="10"/>
<path d="M62.275 370.971L70.9462 381.534V455.633H200.226V381.534L208.897 370.971H62.275Z" fill="white" stroke="#3D3C45" stroke-width="4.72975" stroke-miterlimit="10"/>
<path d="M76.7799 370.971V379.327" stroke="#3D3C45" stroke-width="4.72975" stroke-miterlimit="10"/>
<path d="M86.5552 370.971V379.327" stroke="#3D3C45" stroke-width="4.72975" stroke-miterlimit="10"/>
<path d="M96.3295 370.971V379.327" stroke="#3D3C45" stroke-width="4.72975" stroke-miterlimit="10"/>
<path d="M106.262 370.971V379.327" stroke="#3D3C45" stroke-width="4.72975" stroke-miterlimit="10"/>
<path d="M116.037 370.971V379.327" stroke="#3D3C45" stroke-width="4.72975" stroke-miterlimit="10"/>
<path d="M125.812 370.971V379.327" stroke="#3D3C45" stroke-width="4.72975" stroke-miterlimit="10"/>
<path d="M135.586 370.971V379.327" stroke="#3D3C45" stroke-width="4.72975" stroke-miterlimit="10"/>
<path d="M145.361 370.971V379.327" stroke="#3D3C45" stroke-width="4.72975" stroke-miterlimit="10"/>
<path d="M155.136 370.971V379.327" stroke="#3D3C45" stroke-width="4.72975" stroke-miterlimit="10"/>
<path d="M164.911 370.971V379.327" stroke="#3D3C45" stroke-width="4.72975" stroke-miterlimit="10"/>
<path d="M174.686 370.971V379.327" stroke="#3D3C45" stroke-width="4.72975" stroke-miterlimit="10"/>
<path d="M184.46 370.971V379.327" stroke="#3D3C45" stroke-width="4.72975" stroke-miterlimit="10"/>
<path d="M194.235 370.971V379.327" stroke="#3D3C45" stroke-width="4.72975" stroke-miterlimit="10"/>
<path d="M135.586 388.786C127.545 388.786 121.081 395.25 121.081 403.29V455.633H150.09V403.29C150.09 395.25 143.626 388.786 135.586 388.786Z" fill="white" stroke="#3D3C45" stroke-width="4.72975" stroke-miterlimit="10"/>
<path d="M95.0681 388.786C87.0275 388.786 80.5635 395.25 80.5635 403.29V455.633H109.573V403.29C109.573 395.25 103.109 388.786 95.0681 388.786Z" fill="white" stroke="#3D3C45" stroke-width="4.72975" stroke-miterlimit="10"/>
<path d="M135.586 397.299C131.96 397.299 129.122 400.137 129.122 403.763V408.335H142.05V403.605C142.05 400.137 139.054 397.299 135.586 397.299Z" fill="white" stroke="#3D3C45" stroke-width="4.72975" stroke-miterlimit="10"/>
<path d="M95.0684 397.299C91.4423 397.299 88.6044 400.137 88.6044 403.763V408.335H101.532V403.605C101.532 400.137 98.5369 397.299 95.0684 397.299Z" fill="white" stroke="#3D3C45" stroke-width="4.72975" stroke-miterlimit="10"/>
<path d="M102.005 424.89H88.1307V455.633H102.005V424.89Z" fill="white" stroke="#3D3C45" stroke-width="4.72975" stroke-miterlimit="10"/>
<path d="M142.523 424.89H128.649V455.633H142.523V424.89Z" fill="white" stroke="#3D3C45" stroke-width="4.72975" stroke-miterlimit="10"/>
<path d="M176.104 388.786C168.064 388.786 161.6 395.25 161.6 403.29V455.633H190.609V403.29C190.609 395.25 184.145 388.786 176.104 388.786Z" fill="white" stroke="#3D3C45" stroke-width="4.72975" stroke-miterlimit="10"/>
<path d="M176.105 397.299C172.478 397.299 169.641 400.137 169.641 403.763V408.335H182.569V403.606C182.569 400.137 179.573 397.299 176.105 397.299Z" fill="white" stroke="#3D3C45" stroke-width="4.72975" stroke-miterlimit="10"/>
<path d="M183.041 424.89H169.167V455.633H183.041V424.89Z" fill="white" stroke="#3D3C45" stroke-width="4.72975" stroke-miterlimit="10"/>
<path d="M200.383 455.633H70.946V530.836H200.383V455.633Z" fill="white" stroke="#3D3C45" stroke-width="4.72975" stroke-miterlimit="10"/>
<path d="M110.834 474.394H101.217V493.313H110.834V474.394Z" fill="white" stroke="#3D3C45" stroke-width="4.72975" stroke-miterlimit="10"/>
<path d="M129.437 474.394H119.82V493.313H129.437V474.394Z" fill="white" stroke="#3D3C45" stroke-width="4.72975" stroke-miterlimit="10"/>
<path d="M151.352 474.394H141.735V493.313H151.352V474.394Z" fill="white" stroke="#3D3C45" stroke-width="4.72975" stroke-miterlimit="10"/>
<path d="M169.955 474.394H160.338V493.313H169.955V474.394Z" fill="white" stroke="#3D3C45" stroke-width="4.72975" stroke-miterlimit="10"/>
<path d="M563.786 163.965H434.348V198.177H563.786V163.965Z" fill="white" stroke="#3D3C45" stroke-width="4.72975" stroke-miterlimit="10"/>
<path d="M563.786 198.177H434.348V284.574H563.786V198.177Z" fill="white" stroke="#3D3C45" stroke-width="4.72975" stroke-miterlimit="10"/>
<path d="M499.146 205.902C491.105 205.902 484.641 212.366 484.641 220.407V272.749H513.65V220.407C513.65 212.366 507.186 205.902 499.146 205.902Z" fill="white" stroke="#3D3C45" stroke-width="4.72975" stroke-miterlimit="10"/>
<path d="M499.146 214.416C495.52 214.416 492.682 217.254 492.682 220.88V225.452H505.61V220.88C505.452 217.254 502.614 214.416 499.146 214.416Z" fill="white" stroke="#3D3C45" stroke-width="4.72975" stroke-miterlimit="10"/>
<path d="M449.799 152.93L450.903 147.727L446.015 120.767L441.128 147.727L442.231 152.93L436.871 162.074C436.398 162.862 437.029 163.966 437.975 163.966H456.263L449.799 152.93Z" fill="white" stroke="#3D3C45" stroke-width="4.72975" stroke-miterlimit="10"/>
<path d="M548.335 152.93L547.232 147.727L552.119 120.767L557.007 147.727L555.903 152.93L561.263 162.074C561.736 162.862 561.106 163.966 560.16 163.966H541.871L548.335 152.93Z" fill="white" stroke="#3D3C45" stroke-width="4.72975" stroke-miterlimit="10"/>
<path d="M465.565 163.966V154.033" stroke="#3D3C45" stroke-width="4.72975" stroke-miterlimit="10"/>
<path d="M478.966 163.966V154.033" stroke="#3D3C45" stroke-width="4.72975" stroke-miterlimit="10"/>
<path d="M492.367 163.966V154.033" stroke="#3D3C45" stroke-width="4.72975" stroke-miterlimit="10"/>
<path d="M505.768 163.966V154.033" stroke="#3D3C45" stroke-width="4.72975" stroke-miterlimit="10"/>
<path d="M519.169 163.966V154.033" stroke="#3D3C45" stroke-width="4.72975" stroke-miterlimit="10"/>
<path d="M532.57 163.966V154.033" stroke="#3D3C45" stroke-width="4.72975" stroke-miterlimit="10"/>
<path d="M455.475 171.533C455.475 171.533 451.375 174.055 451.375 178.943V190.137H459.731V178.943C459.731 173.898 455.475 171.533 455.475 171.533Z" fill="white" stroke="#3D3C45" stroke-width="4.72975" stroke-miterlimit="10"/>
<path d="M469.979 171.533C469.979 171.533 465.88 174.055 465.88 178.943V190.137H474.236V178.943C474.236 173.898 469.979 171.533 469.979 171.533Z" fill="white" stroke="#3D3C45" stroke-width="4.72975" stroke-miterlimit="10"/>
<path d="M484.642 171.533C484.642 171.533 480.542 174.055 480.542 178.943V190.137H488.898V178.943C488.741 173.898 484.642 171.533 484.642 171.533Z" fill="white" stroke="#3D3C45" stroke-width="4.72975" stroke-miterlimit="10"/>
<path d="M499.146 171.533C499.146 171.533 495.047 174.055 495.047 178.943V190.137H503.403V178.943C503.245 173.898 499.146 171.533 499.146 171.533Z" fill="white" stroke="#3D3C45" stroke-width="4.72975" stroke-miterlimit="10"/>
<path d="M513.65 171.533C513.65 171.533 509.551 174.055 509.551 178.943V190.137H517.907V178.943C517.749 173.898 513.65 171.533 513.65 171.533Z" fill="white" stroke="#3D3C45" stroke-width="4.72975" stroke-miterlimit="10"/>
<path d="M528.156 171.533C528.156 171.533 524.056 174.055 524.056 178.943V190.137H532.412V178.943C532.255 173.898 528.156 171.533 528.156 171.533Z" fill="white" stroke="#3D3C45" stroke-width="4.72975" stroke-miterlimit="10"/>
<path d="M542.66 171.533C542.66 171.533 538.56 174.055 538.56 178.943V190.137H546.916V178.943C546.759 173.898 542.66 171.533 542.66 171.533Z" fill="white" stroke="#3D3C45" stroke-width="4.72975" stroke-miterlimit="10"/>
<path d="M447.118 234.911C443.019 234.911 439.708 238.222 439.708 242.321V272.749H454.528V242.164C454.528 238.222 451.218 234.911 447.118 234.911Z" fill="white" stroke="#3D3C45" stroke-width="4.72975" stroke-miterlimit="10"/>
<path d="M469.979 234.911C465.88 234.911 462.569 238.222 462.569 242.321V272.749H477.389V242.164C477.389 238.222 474.078 234.911 469.979 234.911Z" fill="white" stroke="#3D3C45" stroke-width="4.72975" stroke-miterlimit="10"/>
<path d="M464.303 212.366C464.303 215.52 461.78 218.042 458.627 218.042C455.474 218.042 452.952 215.52 452.952 212.366C452.952 209.213 455.474 206.691 458.627 206.691C461.78 206.691 464.303 209.213 464.303 212.366Z" fill="white" stroke="#3D3C45" stroke-width="4.72975" stroke-miterlimit="10"/>
<path d="M528.155 234.912C524.055 234.912 520.745 238.222 520.745 242.321V272.75H535.565V242.164C535.565 238.222 532.254 234.912 528.155 234.912Z" fill="white" stroke="#3D3C45" stroke-width="4.72975" stroke-miterlimit="10"/>
<path d="M551.015 234.912C546.916 234.912 543.605 238.222 543.605 242.322V272.75H558.425V242.164C558.425 238.222 555.114 234.912 551.015 234.912Z" fill="white" stroke="#3D3C45" stroke-width="4.72975" stroke-miterlimit="10"/>
<path d="M545.339 212.367C545.339 215.52 542.817 218.042 539.663 218.042C536.51 218.042 533.988 215.52 533.988 212.367C533.988 209.213 536.51 206.691 539.663 206.691C542.817 206.691 545.339 209.213 545.339 212.367Z" fill="white" stroke="#3D3C45" stroke-width="4.72975" stroke-miterlimit="10"/>
<path d="M563.786 272.749H434.348V284.416H563.786V272.749Z" fill="white" stroke="#3D3C45" stroke-width="4.72975" stroke-miterlimit="10"/>
<path d="M563.786 284.573H434.348V370.97H563.786V284.573Z" fill="white" stroke="#3D3C45" stroke-width="4.72975" stroke-miterlimit="10"/>
<path d="M499.146 292.299C491.105 292.299 484.641 298.763 484.641 306.803V359.146H513.65V306.803C513.65 298.92 507.186 292.299 499.146 292.299Z" fill="white" stroke="#3D3C45" stroke-width="4.72975" stroke-miterlimit="10"/>
<path d="M499.146 300.813C495.52 300.813 492.682 303.651 492.682 307.277V311.849H505.61V307.277C505.452 303.651 502.614 300.813 499.146 300.813Z" fill="white" stroke="#3D3C45" stroke-width="4.72975" stroke-miterlimit="10"/>
<path d="M539.664 321.309C535.565 321.309 532.255 324.62 532.255 328.719V359.305H547.074V328.719C547.074 324.62 543.764 321.309 539.664 321.309Z" fill="white" stroke="#3D3C45" stroke-width="4.72975" stroke-miterlimit="10"/>
<path d="M458.628 321.309C454.529 321.309 451.218 324.62 451.218 328.719V359.305H466.038V328.719C466.038 324.62 462.727 321.309 458.628 321.309Z" fill="white" stroke="#3D3C45" stroke-width="4.72975" stroke-miterlimit="10"/>
<path d="M464.304 298.763C464.304 301.916 461.782 304.438 458.629 304.438C455.475 304.438 452.953 301.916 452.953 298.763C452.953 295.61 455.475 293.087 458.629 293.087C461.782 293.087 464.304 295.61 464.304 298.763Z" fill="white" stroke="#3D3C45" stroke-width="4.72975" stroke-miterlimit="10"/>
<path d="M545.34 298.763C545.34 301.916 542.817 304.438 539.664 304.438C536.511 304.438 533.989 301.916 533.989 298.763C533.989 295.61 536.511 293.087 539.664 293.087C542.817 293.087 545.34 295.61 545.34 298.763Z" fill="white" stroke="#3D3C45" stroke-width="4.72975" stroke-miterlimit="10"/>
<path d="M563.786 359.304H434.348V370.97H563.786V359.304Z" fill="white" stroke="#3D3C45" stroke-width="4.72975" stroke-miterlimit="10"/>
<path d="M425.835 370.971L434.348 381.534V455.633H563.786V381.534L572.457 370.971H425.835Z" fill="white" stroke="#3D3C45" stroke-width="4.72975" stroke-miterlimit="10"/>
<path d="M440.339 370.971V379.327" stroke="#3D3C45" stroke-width="4.72975" stroke-miterlimit="10"/>
<path d="M450.115 370.971V379.327" stroke="#3D3C45" stroke-width="4.72975" stroke-miterlimit="10"/>
<path d="M459.889 370.971V379.327" stroke="#3D3C45" stroke-width="4.72975" stroke-miterlimit="10"/>
<path d="M469.664 370.971V379.327" stroke="#3D3C45" stroke-width="4.72975" stroke-miterlimit="10"/>
<path d="M479.439 370.971V379.327" stroke="#3D3C45" stroke-width="4.72975" stroke-miterlimit="10"/>
<path d="M489.371 370.971V379.327" stroke="#3D3C45" stroke-width="4.72975" stroke-miterlimit="10"/>
<path d="M499.146 370.971V379.327" stroke="#3D3C45" stroke-width="4.72975" stroke-miterlimit="10"/>
<path d="M508.921 370.971V379.327" stroke="#3D3C45" stroke-width="4.72975" stroke-miterlimit="10"/>
<path d="M518.696 370.971V379.327" stroke="#3D3C45" stroke-width="4.72975" stroke-miterlimit="10"/>
<path d="M528.47 370.971V379.327" stroke="#3D3C45" stroke-width="4.72975" stroke-miterlimit="10"/>
<path d="M538.245 370.971V379.327" stroke="#3D3C45" stroke-width="4.72975" stroke-miterlimit="10"/>
<path d="M548.02 370.971V379.327" stroke="#3D3C45" stroke-width="4.72975" stroke-miterlimit="10"/>
<path d="M557.795 370.971V379.327" stroke="#3D3C45" stroke-width="4.72975" stroke-miterlimit="10"/>
<path d="M499.146 388.786C491.105 388.786 484.641 395.25 484.641 403.291V455.633H513.65V403.291C513.65 395.25 507.186 388.786 499.146 388.786Z" fill="white" stroke="#3D3C45" stroke-width="4.72975" stroke-miterlimit="10"/>
<path d="M539.664 388.786C531.623 388.786 525.159 395.25 525.159 403.291V455.633H554.168V403.291C554.168 395.25 547.704 388.786 539.664 388.786Z" fill="white" stroke="#3D3C45" stroke-width="4.72975" stroke-miterlimit="10"/>
<path d="M458.627 388.786C450.587 388.786 444.123 395.25 444.123 403.291V455.633H473.132V403.291C473.132 395.25 466.51 388.786 458.627 388.786Z" fill="white" stroke="#3D3C45" stroke-width="4.72975" stroke-miterlimit="10"/>
<path d="M499.146 397.299C495.52 397.299 492.682 400.137 492.682 403.763V408.335H505.61V403.606C505.452 400.137 502.615 397.299 499.146 397.299Z" fill="white" stroke="#3D3C45" stroke-width="4.72975" stroke-miterlimit="10"/>
<path d="M539.664 397.299C536.038 397.299 533.2 400.137 533.2 403.763V408.335H546.128V403.606C545.97 400.137 543.133 397.299 539.664 397.299Z" fill="white" stroke="#3D3C45" stroke-width="4.72975" stroke-miterlimit="10"/>
<path d="M458.628 397.299C455.002 397.299 452.164 400.137 452.164 403.763V408.335H465.092V403.606C464.934 400.137 462.096 397.299 458.628 397.299Z" fill="white" stroke="#3D3C45" stroke-width="4.72975" stroke-miterlimit="10"/>
<path d="M465.565 424.89H451.691V455.633H465.565V424.89Z" fill="white" stroke="#3D3C45" stroke-width="4.72975" stroke-miterlimit="10"/>
<path d="M506.083 424.89H492.209V455.633H506.083V424.89Z" fill="white" stroke="#3D3C45" stroke-width="4.72975" stroke-miterlimit="10"/>
<path d="M546.601 424.89H532.727V455.633H546.601V424.89Z" fill="white" stroke="#3D3C45" stroke-width="4.72975" stroke-miterlimit="10"/>
<path d="M563.786 455.633H434.348V530.836H563.786V455.633Z" fill="white" stroke="#3D3C45" stroke-width="4.72975" stroke-miterlimit="10"/>
<path d="M474.394 474.393H464.776V493.312H474.394V474.393Z" fill="white" stroke="#3D3C45" stroke-width="4.72975" stroke-miterlimit="10"/>
<path d="M492.998 474.393H483.38V493.312H492.998V474.393Z" fill="white" stroke="#3D3C45" stroke-width="4.72975" stroke-miterlimit="10"/>
<path d="M514.912 474.393H505.294V493.312H514.912V474.393Z" fill="white" stroke="#3D3C45" stroke-width="4.72975" stroke-miterlimit="10"/>
<path d="M533.516 474.393H523.898V493.312H533.516V474.393Z" fill="white" stroke="#3D3C45" stroke-width="4.72975" stroke-miterlimit="10"/>
<path d="M241.847 263.132H230.653V282.681H241.847V263.132Z" fill="white" stroke="#3D3C45" stroke-width="4.72975" stroke-miterlimit="10"/>
<path d="M295.923 263.132H284.73V282.681H295.923V263.132Z" fill="white" stroke="#3D3C45" stroke-width="4.72975" stroke-miterlimit="10"/>
<path d="M350.001 263.132H338.807V282.681H350.001V263.132Z" fill="white" stroke="#3D3C45" stroke-width="4.72975" stroke-miterlimit="10"/>
<path d="M404.077 263.132H392.883V282.681H404.077V263.132Z" fill="white" stroke="#3D3C45" stroke-width="4.72975" stroke-miterlimit="10"/>
<path d="M241.847 292.771H230.653V312.32H241.847V292.771Z" fill="white" stroke="#3D3C45" stroke-width="4.72975" stroke-miterlimit="10"/>
<path d="M295.923 292.771H284.73V312.32H295.923V292.771Z" fill="white" stroke="#3D3C45" stroke-width="4.72975" stroke-miterlimit="10"/>
<path d="M350.001 292.771H338.807V312.32H350.001V292.771Z" fill="white" stroke="#3D3C45" stroke-width="4.72975" stroke-miterlimit="10"/>
<path d="M404.077 292.771H392.883V312.32H404.077V292.771Z" fill="white" stroke="#3D3C45" stroke-width="4.72975" stroke-miterlimit="10"/>
<path d="M241.847 322.411H230.653V341.961H241.847V322.411Z" fill="white" stroke="#3D3C45" stroke-width="4.72975" stroke-miterlimit="10"/>
<path d="M295.923 322.411H284.73V341.961H295.923V322.411Z" fill="white" stroke="#3D3C45" stroke-width="4.72975" stroke-miterlimit="10"/>
<path d="M350.001 322.411H338.807V341.961H350.001V322.411Z" fill="white" stroke="#3D3C45" stroke-width="4.72975" stroke-miterlimit="10"/>
<path d="M404.077 322.411H392.883V341.961H404.077V322.411Z" fill="white" stroke="#3D3C45" stroke-width="4.72975" stroke-miterlimit="10"/>
<path d="M241.847 351.893H230.653V371.443H241.847V351.893Z" fill="white" stroke="#3D3C45" stroke-width="4.72975" stroke-miterlimit="10"/>
<path d="M295.923 351.893H284.73V371.443H295.923V351.893Z" fill="white" stroke="#3D3C45" stroke-width="4.72975" stroke-miterlimit="10"/>
<path d="M350.001 351.893H338.807V371.443H350.001V351.893Z" fill="white" stroke="#3D3C45" stroke-width="4.72975" stroke-miterlimit="10"/>
<path d="M404.077 351.893H392.883V371.443H404.077V351.893Z" fill="white" stroke="#3D3C45" stroke-width="4.72975" stroke-miterlimit="10"/>
<path d="M434.348 370.97H200.226V381.533H434.348V370.97Z" fill="white" stroke="#3D3C45" stroke-width="4.72975" stroke-miterlimit="10"/>
<path d="M604.304 530.836C604.304 530.836 571.511 354.89 591.218 280.002L595.318 258.561C601.309 227.502 601.781 195.813 596.579 164.596L594.529 152.614C594.529 152.614 678.719 135.114 720.656 309.799L759.44 530.836H604.304Z" fill="white" stroke="#3D3C45" stroke-width="4.72975" stroke-miterlimit="10"/>
<path d="M741.309 115.722L745.25 149.618C750.768 197.231 748.719 245.317 739.102 292.141C723.494 368.763 703.471 489.056 722.075 530.678H884.936C884.936 530.836 889.192 183.988 741.309 115.722Z" fill="white" stroke="#3D3C45" stroke-width="4.72975" stroke-miterlimit="10"/>
<path d="M905.904 530.836C905.904 530.836 994.508 504.507 993.562 351.894C993.562 351.894 984.733 164.754 1095.88 113.988C1095.88 113.988 1088 168.222 1102.03 207.637C1102.03 207.637 1155.48 332.818 1093.2 530.679H905.904V530.836Z" fill="white" stroke="#3D3C45" stroke-width="4.72975" stroke-miterlimit="10"/>
<path d="M747.458 176.735H790.656" stroke="#3D3C45" stroke-width="4.72975" stroke-miterlimit="10"/>
<path d="M747.458 190.136H790.656" stroke="#3D3C45" stroke-width="4.72975" stroke-miterlimit="10"/>
<path d="M747.458 203.537H790.656" stroke="#3D3C45" stroke-width="4.72975" stroke-miterlimit="10"/>
<path d="M747.458 216.78H790.656" stroke="#3D3C45" stroke-width="4.72975" stroke-miterlimit="10"/>
<path d="M747.458 230.181H790.656" stroke="#3D3C45" stroke-width="4.72975" stroke-miterlimit="10"/>
<path d="M747.458 243.424H790.656" stroke="#3D3C45" stroke-width="4.72975" stroke-miterlimit="10"/>
<path d="M747.458 256.825H790.656" stroke="#3D3C45" stroke-width="4.72975" stroke-miterlimit="10"/>
<path d="M747.458 270.069H790.656" stroke="#3D3C45" stroke-width="4.72975" stroke-miterlimit="10"/>
<path d="M747.458 283.47H790.656" stroke="#3D3C45" stroke-width="4.72975" stroke-miterlimit="10"/>
<path d="M747.458 296.713H790.656" stroke="#3D3C45" stroke-width="4.72975" stroke-miterlimit="10"/>
<path d="M747.458 310.114H790.656" stroke="#3D3C45" stroke-width="4.72975" stroke-miterlimit="10"/>
<path d="M747.458 323.357H790.656" stroke="#3D3C45" stroke-width="4.72975" stroke-miterlimit="10"/>
<path d="M747.458 336.758H790.656" stroke="#3D3C45" stroke-width="4.72975" stroke-miterlimit="10"/>
<path d="M747.458 350.159H790.656" stroke="#3D3C45" stroke-width="4.72975" stroke-miterlimit="10"/>
<path d="M747.458 363.402H790.656" stroke="#3D3C45" stroke-width="4.72975" stroke-miterlimit="10"/>
<path d="M747.458 376.803H790.656" stroke="#3D3C45" stroke-width="4.72975" stroke-miterlimit="10"/>
<path d="M747.458 390.046H790.656" stroke="#3D3C45" stroke-width="4.72975" stroke-miterlimit="10"/>
<path d="M747.458 403.447H790.656" stroke="#3D3C45" stroke-width="4.72975" stroke-miterlimit="10"/>
<path d="M747.458 416.691H790.656" stroke="#3D3C45" stroke-width="4.72975" stroke-miterlimit="10"/>
<path d="M747.458 430.092H790.656" stroke="#3D3C45" stroke-width="4.72975" stroke-miterlimit="10"/>
<path d="M747.458 443.335H790.656" stroke="#3D3C45" stroke-width="4.72975" stroke-miterlimit="10"/>
<path d="M747.458 456.736H790.656" stroke="#3D3C45" stroke-width="4.72975" stroke-miterlimit="10"/>
<path d="M747.458 469.979H790.656" stroke="#3D3C45" stroke-width="4.72975" stroke-miterlimit="10"/>
<path d="M747.458 483.38H790.656" stroke="#3D3C45" stroke-width="4.72975" stroke-miterlimit="10"/>
<path d="M747.458 496.781H790.656" stroke="#3D3C45" stroke-width="4.72975" stroke-miterlimit="10"/>
<path d="M632.998 198.177C632.998 198.177 684.552 244.686 702.367 397.299H641.354C641.354 397.299 600.363 282.681 632.998 198.177Z" fill="white" stroke="#3D3C45" stroke-width="4.72975" stroke-miterlimit="10"/>
<path d="M634.101 253.83H661.376" stroke="#3D3C45" stroke-width="4.72975" stroke-miterlimit="10"/>
<path d="M634.101 270.069H661.376" stroke="#3D3C45" stroke-width="4.72975" stroke-miterlimit="10"/>
<path d="M634.101 286.307H661.376" stroke="#3D3C45" stroke-width="4.72975" stroke-miterlimit="10"/>
<path d="M634.101 302.547H661.376" stroke="#3D3C45" stroke-width="4.72975" stroke-miterlimit="10"/>
<path d="M634.101 318.785H661.376" stroke="#3D3C45" stroke-width="4.72975" stroke-miterlimit="10"/>
<path d="M634.101 335.025H661.376" stroke="#3D3C45" stroke-width="4.72975" stroke-miterlimit="10"/>
<path d="M1008.54 230.181H1109.28" stroke="#3D3C45" stroke-width="4.72975" stroke-miterlimit="10"/>
<path d="M1044.01 163.965V219.934" stroke="#3D3C45" stroke-width="4.72975" stroke-miterlimit="10"/>
<path d="M1053.47 163.965V219.934" stroke="#3D3C45" stroke-width="4.72975" stroke-miterlimit="10"/>
<path d="M1062.93 163.965V219.934" stroke="#3D3C45" stroke-width="4.72975" stroke-miterlimit="10"/>
<path d="M1072.39 163.965V219.934" stroke="#3D3C45" stroke-width="4.72975" stroke-miterlimit="10"/>
<path d="M1081.85 163.965V219.934" stroke="#3D3C45" stroke-width="4.72975" stroke-miterlimit="10"/>
<path d="M1136.4 508.763H575.137V530.835H1136.4V508.763Z" fill="white" stroke="#3D3C45" stroke-width="4.72975" stroke-miterlimit="10"/>
<path d="M1403.16 308.695H1192.21V366.871H1403.16V308.695Z" fill="white" stroke="#3D3C45" stroke-width="4.72975" stroke-miterlimit="10"/>
<path d="M1403.16 308.695C1394.01 258.717 1350.34 220.879 1297.68 220.879C1245.03 220.879 1201.36 258.717 1192.21 308.695H1403.16Z" fill="white" stroke="#3D3C45" stroke-width="4.72975" stroke-miterlimit="10"/>
<path d="M1297.68 220.879V195.023" stroke="#3D3C45" stroke-width="4.72975" stroke-miterlimit="10"/>
<path d="M1229.73 277.005H1218.38V329.19H1229.73V277.005Z" fill="white" stroke="#3D3C45" stroke-width="4.72975" stroke-miterlimit="10"/>
<path d="M1376.99 277.005H1365.64V329.19H1376.99V277.005Z" fill="white" stroke="#3D3C45" stroke-width="4.72975" stroke-miterlimit="10"/>
<path d="M1303.36 329.191H1292.01V396.826H1303.36V329.191Z" fill="white" stroke="#3D3C45" stroke-width="4.72975" stroke-miterlimit="10"/>
<path d="M1303.36 329.191H1292.01V396.826H1303.36V329.191Z" fill="white" stroke="#3D3C45" stroke-width="4.72975" stroke-miterlimit="10"/>
<path d="M1365.64 299.55H1229.58V329.19H1365.64V299.55Z" fill="white" stroke="#3D3C45" stroke-width="4.72975" stroke-miterlimit="10"/>
<path d="M1315.97 288.2H1279.24V329.033H1315.97V288.2Z" fill="white" stroke="#3D3C45" stroke-width="4.72975" stroke-miterlimit="10"/>
<path d="M1279.24 303.019V277.636" stroke="#3D3C45" stroke-width="4.72975" stroke-miterlimit="10"/>
<path d="M1315.97 303.019V277.636" stroke="#3D3C45" stroke-width="4.72975" stroke-miterlimit="10"/>
<path d="M1297.68 302.546C1294.06 302.546 1291.06 305.542 1291.06 309.168V329.191H1304.31V309.168C1304.31 305.542 1301.31 302.546 1297.68 302.546Z" fill="white" stroke="#3D3C45" stroke-width="4.72975" stroke-miterlimit="10"/>
<path d="M1365.64 329.191H1229.58V530.835H1365.64V329.191Z" fill="white" stroke="#3D3C45" stroke-width="4.72975" stroke-miterlimit="10"/>
<path d="M1297.68 363.087C1279.71 363.087 1265.21 377.592 1265.21 395.565V530.993H1330V395.565C1330 377.592 1315.5 363.087 1297.68 363.087Z" fill="white" stroke="#3D3C45" stroke-width="4.72975" stroke-miterlimit="10"/>
<path d="M1319.91 412.434C1319.91 400.136 1309.98 390.204 1297.68 390.204C1285.39 390.204 1275.45 400.136 1275.45 412.434C1275.45 419.371 1278.61 425.677 1283.65 429.776C1280.5 433.245 1278.45 437.817 1278.45 442.862V530.047H1316.76V442.862C1316.76 437.817 1314.87 433.245 1311.56 429.776C1316.76 425.677 1319.91 419.371 1319.91 412.434Z" fill="white" stroke="#3D3C45" stroke-width="4.72975" stroke-miterlimit="10"/>
<path d="M1407.89 366.87C1407.89 366.082 1407.89 365.451 1407.89 364.663C1407.89 345.902 1400 330.767 1390.23 330.767C1380.46 330.767 1372.57 345.902 1372.57 364.663C1372.57 365.451 1372.57 366.082 1372.57 366.87H1407.89Z" fill="white" stroke="#3D3C45" stroke-width="4.72975" stroke-miterlimit="10"/>
<path d="M1431.69 366.87C1431.69 366.082 1431.69 365.451 1431.69 364.663C1431.69 345.902 1426.18 330.767 1419.4 330.767C1412.62 330.767 1407.1 345.902 1407.1 364.663C1407.1 365.451 1407.1 366.082 1407.1 366.87H1431.69Z" fill="white" stroke="#3D3C45" stroke-width="4.72975" stroke-miterlimit="10"/>
<path d="M1187.32 366.87C1187.32 366.082 1187.32 365.451 1187.32 364.663C1187.32 345.902 1195.21 330.767 1204.98 330.767C1214.76 330.767 1222.64 345.902 1222.64 364.663C1222.64 365.451 1222.64 366.082 1222.64 366.87H1187.32Z" fill="white" stroke="#3D3C45" stroke-width="4.72975" stroke-miterlimit="10"/>
<path d="M1163.67 366.87C1163.67 366.082 1163.67 365.451 1163.67 364.663C1163.67 345.902 1169.19 330.767 1175.97 330.767C1182.75 330.767 1188.27 345.902 1188.27 364.663C1188.27 365.451 1188.27 366.082 1188.27 366.87H1163.67Z" fill="white" stroke="#3D3C45" stroke-width="4.72975" stroke-miterlimit="10"/>
<path d="M1433.27 366.87H1365.64V530.835H1433.27V366.87Z" fill="white" stroke="#3D3C45" stroke-width="4.72975" stroke-miterlimit="10"/>
<path d="M1399.53 402.816C1386.76 402.816 1376.51 413.064 1376.51 425.834V530.835H1422.55V425.834C1422.55 413.064 1412.3 402.816 1399.53 402.816Z" fill="white" stroke="#3D3C45" stroke-width="4.72975" stroke-miterlimit="10"/>
<path d="M1229.58 366.87H1161.94V530.835H1229.58V366.87Z" fill="white" stroke="#3D3C45" stroke-width="4.72975" stroke-miterlimit="10"/>
<path d="M1195.84 402.816C1183.07 402.816 1172.82 413.064 1172.82 425.834V530.835H1218.85V425.834C1218.85 413.064 1208.45 402.816 1195.84 402.816Z" fill="white" stroke="#3D3C45" stroke-width="4.72975" stroke-miterlimit="10"/>
<path d="M1408.2 441.443C1408.2 436.713 1404.26 432.772 1399.53 432.772C1394.8 432.772 1390.86 436.713 1390.86 441.443C1390.86 444.123 1392.12 446.646 1394.01 448.222C1392.75 449.484 1391.96 451.376 1391.96 453.268V487.164H1406.94V453.268C1406.94 451.376 1406.15 449.484 1404.89 448.222C1406.94 446.646 1408.2 444.281 1408.2 441.443Z" fill="white" stroke="#3D3C45" stroke-width="4.72975" stroke-miterlimit="10"/>
<path d="M1414.04 477.074H1385.03V529.889H1414.04V477.074Z" fill="white" stroke="#3D3C45" stroke-width="4.72975" stroke-miterlimit="10"/>
<path d="M1204.51 441.443C1204.51 436.713 1200.57 432.772 1195.84 432.772C1191.11 432.772 1187.17 436.713 1187.17 441.443C1187.17 444.123 1188.43 446.646 1190.32 448.222C1189.06 449.484 1188.27 451.376 1188.27 453.268V487.164H1203.25V453.268C1203.25 451.376 1202.46 449.484 1201.2 448.222C1203.25 446.646 1204.51 444.281 1204.51 441.443Z" fill="white" stroke="#3D3C45" stroke-width="4.72975" stroke-miterlimit="10"/>
<path d="M1210.34 477.074H1181.33V529.889H1210.34V477.074Z" fill="white" stroke="#3D3C45" stroke-width="4.72975" stroke-miterlimit="10"/>
<path d="M1550.88 423.47H1499.33V530.835H1550.88V423.47Z" fill="white" stroke="#3D3C45" stroke-width="4.72975" stroke-miterlimit="10"/>
<path d="M1475.05 366.871H1553.88L1541.74 386.42L1556.56 413.38H1480.88L1475.05 366.871Z" fill="white" stroke="#3D3C45" stroke-width="4.72975" stroke-miterlimit="10"/>
<path d="M1491.29 413.38V530.835H1499.33V458.628C1499.33 445.385 1510.05 434.506 1523.45 434.506C1536.69 434.506 1547.57 445.227 1547.57 458.628V530.835H1556.72V413.38H1491.29Z" fill="white" stroke="#3D3C45" stroke-width="4.72975" stroke-miterlimit="10"/>
<path d="M1462.28 10.5632C1461.49 14.1893 1438.79 28.5362 1438.79 59.4372H1485.77C1485.77 28.5362 1463.07 14.1893 1462.28 10.5632Z" fill="white" stroke="#3D3C45" stroke-width="4.72975" stroke-miterlimit="10"/>
<path d="M1485.77 59.4372H1438.79V70.4733H1485.77V59.4372Z" fill="white" stroke="#3D3C45" stroke-width="4.72975" stroke-miterlimit="10"/>
<path d="M1485.77 70.4732H1438.79V130.226H1485.77V70.4732Z" fill="white" stroke="#3D3C45" stroke-width="4.72975" stroke-miterlimit="10"/>
<path d="M1501.22 108.784H1423.5V130.225H1501.22V108.784Z" fill="white" stroke="#3D3C45" stroke-width="4.72975" stroke-miterlimit="10"/>
<path d="M1491.76 152.14H1432.8L1423.5 130.226H1501.06L1491.76 152.14Z" fill="white" stroke="#3D3C45" stroke-width="4.72975" stroke-miterlimit="10"/>
<path d="M1491.29 152.14H1433.27V366.87H1491.29V152.14Z" fill="white" stroke="#3D3C45" stroke-width="4.72975" stroke-miterlimit="10"/>
<path d="M1462.28 190.766C1458.5 190.766 1455.5 193.762 1455.5 197.545V217.883H1469.06V197.545C1469.06 193.762 1466.06 190.766 1462.28 190.766Z" fill="white" stroke="#3D3C45" stroke-width="4.72975" stroke-miterlimit="10"/>
<path d="M1462.28 277.321C1458.5 277.321 1455.5 280.317 1455.5 284.1V304.281H1469.06V283.943C1469.06 280.317 1466.06 277.321 1462.28 277.321Z" fill="white" stroke="#3D3C45" stroke-width="4.72975" stroke-miterlimit="10"/>
<path d="M1491.29 366.871H1433.27V530.835H1491.29V366.871Z" fill="white" stroke="#3D3C45" stroke-width="4.72975" stroke-miterlimit="10"/>
<path d="M1462.28 392.096C1458.5 392.096 1455.5 395.092 1455.5 398.875V419.213H1469.06V398.875C1469.06 395.092 1466.06 392.096 1462.28 392.096Z" fill="white" stroke="#3D3C45" stroke-width="4.72975" stroke-miterlimit="10"/>
<path d="M1462.28 478.65C1458.5 478.65 1455.5 481.646 1455.5 485.429V505.767H1469.06V485.429C1469.06 481.646 1466.06 478.65 1462.28 478.65Z" fill="white" stroke="#3D3C45" stroke-width="4.72975" stroke-miterlimit="10"/>
<path d="M1044.5 530.798H1096.05V423.432H1044.5V530.798Z" fill="white" stroke="#3D3C45" stroke-width="4.72975" stroke-miterlimit="10"/>
<path d="M1120.16 366.871H1041.33L1053.47 386.42L1038.65 413.38H1114.49L1120.16 366.871Z" fill="white" stroke="#3D3C45" stroke-width="4.72975" stroke-miterlimit="10"/>
<path d="M1104.08 413.38V530.835H1096.04V458.628C1096.04 445.385 1085.32 434.506 1071.92 434.506C1058.67 434.506 1047.8 445.227 1047.8 458.628V530.835H1038.65V413.38H1104.08Z" fill="white" stroke="#3D3C45" stroke-width="4.72975" stroke-miterlimit="10"/>
<path d="M1132.93 10.5633C1133.72 14.1894 1156.42 28.5363 1156.42 59.4373H1109.44C1109.6 28.5363 1132.14 14.1894 1132.93 10.5633Z" fill="white" stroke="#3D3C45" stroke-width="4.72975" stroke-miterlimit="10"/>
<path d="M1109.42 70.5604H1156.4V59.5243L1109.42 59.5243V70.5604Z" fill="white" stroke="#3D3C45" stroke-width="4.72975" stroke-miterlimit="10"/>
<path d="M1109.42 130.218H1156.4V70.4655H1109.42V130.218Z" fill="white" stroke="#3D3C45" stroke-width="4.72975" stroke-miterlimit="10"/>
<path d="M1094.13 130.152H1171.85V108.71L1094.13 108.71V130.152Z" fill="white" stroke="#3D3C45" stroke-width="4.72975" stroke-miterlimit="10"/>
<path d="M1103.45 152.14H1162.57L1171.87 130.226H1094.15L1103.45 152.14Z" fill="white" stroke="#3D3C45" stroke-width="4.72975" stroke-miterlimit="10"/>
<path d="M1103.9 366.963H1161.92V152.233H1103.9V366.963Z" fill="white" stroke="#3D3C45" stroke-width="4.72975" stroke-miterlimit="10"/>
<path d="M1132.93 190.766C1136.72 190.766 1139.71 193.762 1139.71 197.545V217.883H1126.15V197.545C1126.31 193.762 1129.31 190.766 1132.93 190.766Z" fill="white" stroke="#3D3C45" stroke-width="4.72975" stroke-miterlimit="10"/>
<path d="M1132.93 277.321C1136.72 277.321 1139.71 280.317 1139.71 284.101V304.281H1126.15V283.943C1126.31 280.317 1129.31 277.321 1132.93 277.321Z" fill="white" stroke="#3D3C45" stroke-width="4.72975" stroke-miterlimit="10"/>
<path d="M1103.9 530.868H1161.92V366.903H1103.9V530.868Z" fill="white" stroke="#3D3C45" stroke-width="4.72975" stroke-miterlimit="10"/>
<path d="M1132.93 392.096C1136.72 392.096 1139.71 395.092 1139.71 398.875V419.213H1126.15V398.875C1126.31 395.092 1129.31 392.096 1132.93 392.096Z" fill="white" stroke="#3D3C45" stroke-width="4.72975" stroke-miterlimit="10"/>
<path d="M1132.93 478.65C1136.72 478.65 1139.71 481.646 1139.71 485.43V505.767H1126.15V485.43C1126.31 481.646 1129.31 478.65 1132.93 478.65Z" fill="white" stroke="#3D3C45" stroke-width="4.72975" stroke-miterlimit="10"/>
</g>
<defs>
<clipPath id="clip0_1_1589">
<rect width="1581.31" height="533.2" fill="white"/>
</clipPath>
</defs>
</svg>
